<svg width="198" height="38" viewBox="0 0 198 38" fill="none" xmlns="http://www.w3.org/2000/svg">
<path d="M0 19C0 8.50659 8.50659 0 19 0V0C29.4934 0 38 8.50659 38 19V19C38 29.4934 29.4934 38 19 38V38C8.50659 38 0 29.4934 0 19V19Z" fill="#F8F9FF"/>
<rect width="19" height="28" transform="translate(9.5 5)" fill="#F8F9FF"/>
<path d="M26.618 6C20.3029 9.46963 21.7075 16.4206 21.7075 16.4206H16.797C17.9893 9.60981 11.8865 6.68925 11.8865 6.68925C11.3908 9.57477 11.0248 12.9276 11.0012 16.6659C10.9658 22.3084 11.6977 27.1682 12.583 31L26.7125 30.7196C29.6635 18.535 26.618 6 26.618 6ZM16.2422 18.1846C17.0213 18.1846 17.6469 19.271 17.6469 20.6145C17.6469 21.9579 17.0213 23.0444 16.2422 23.0444C15.4632 23.0444 14.8376 21.9579 14.8376 20.6145C14.8376 19.271 15.4632 18.1846 16.2422 18.1846ZM24.0684 25.5561C24.0566 25.5794 24.0566 25.6145 24.0448 25.6495C23.7615 26.6425 23.006 27.5537 21.861 27.5187C21.1409 27.4953 20.4563 27.028 19.9133 26.3622C19.7953 26.3855 19.6772 26.3855 19.5592 26.3505C18.969 27.0397 18.2253 27.507 17.4463 27.5304C16.7262 27.5537 15.2153 26.9229 15.2271 25.6495V25.6028C15.2271 25.3107 15.6048 25.1121 15.7583 25.3107C16.3249 26.0234 16.6554 26.3972 17.4463 26.3388C17.9066 26.3037 18.4142 26.035 18.851 25.6495L17.7178 23.6986C17.3872 23.1379 17.8004 22.4369 18.4496 22.4369H21.0819C21.7312 22.4369 22.1443 23.1379 21.8138 23.6986L20.5625 25.8364C20.657 25.9182 20.7278 25.9883 20.7514 26C21.8138 26.8528 22.581 26.2921 23.5018 25.3224C23.5844 25.229 23.6552 25.1005 23.7969 25.1472C23.8559 25.1706 23.9149 25.2056 23.9621 25.2523C24.0093 25.2874 24.0566 25.3224 24.0684 25.3808C24.1038 25.4393 24.0802 25.4977 24.0684 25.5561ZM23.2539 23.0444C22.4748 23.0444 21.8492 21.9579 21.8492 20.6145C21.8492 19.271 22.4748 18.1846 23.2539 18.1846C24.0329 18.1846 24.6586 19.271 24.6586 20.6145C24.6586 21.9579 24.0329 23.0444 23.2539 23.0444Z" fill="#00D8CD"/>
<path d="M72.4357 13.7286C71.3535 13.7984 70.2015 13.8333 69.0147 13.9031C67.8278 13.9729 66.6758 14.0428 65.5937 14.1824C65.5937 13.589 65.4889 12.9606 65.3493 12.2974C65.2097 11.6341 64.9653 11.0756 64.6861 10.517C64.4068 9.99342 64.0228 9.53962 63.569 9.19053C63.1152 8.84145 62.5916 8.66691 61.9632 8.66691C60.9858 8.66691 60.148 8.94618 59.4149 9.50471C58.6819 10.0632 58.0535 10.7963 57.5997 11.7039C57.111 12.6115 56.7619 13.6588 56.5176 14.8107C56.2732 15.9627 56.1685 17.1496 56.1685 18.3365C56.1685 19.5582 56.2732 20.7451 56.5176 21.8971C56.7619 23.049 57.111 24.0963 57.5997 25.0039C58.0884 25.9115 58.6819 26.6446 59.4149 27.2031C60.148 27.7616 60.9858 28.0409 61.9283 28.0409C64.8955 28.0409 66.3616 26.7493 66.3616 24.1661C66.3616 24.0265 66.3616 23.9217 66.3616 23.7821C66.3616 23.6425 66.3616 23.5028 66.3267 23.3632C65.3493 23.433 64.3719 23.4679 63.3596 23.4679C62.3472 23.4679 61.4047 23.4679 60.3924 23.5028C60.3575 22.5254 60.3225 21.548 60.3225 20.5706C60.3225 20.0469 60.3225 19.5233 60.3225 18.9997C60.3225 18.4761 60.3225 17.9525 60.3225 17.4288C60.4971 17.4288 60.8462 17.4288 61.3349 17.4288C61.8236 17.4288 62.3821 17.3939 63.0454 17.3939C63.7086 17.3939 64.4417 17.359 65.2097 17.359C65.9777 17.359 66.7805 17.359 67.5485 17.3241C68.3165 17.3241 69.0845 17.3241 69.8175 17.2892C70.5506 17.2892 71.179 17.2892 71.7375 17.2892C72.0866 17.2892 72.4007 17.2892 72.68 17.2892C72.9593 17.2892 73.1687 17.2892 73.2734 17.3241V19.1393C73.2734 20.3262 73.2385 21.548 73.1338 22.8745C73.064 24.201 72.8545 25.4926 72.6102 26.7842C72.3309 28.0758 71.9469 29.2976 71.3884 30.4845C70.8648 31.6713 70.1666 32.6837 69.259 33.5913C68.3863 34.4989 67.2693 35.197 65.9777 35.7207C64.6861 36.2443 63.1152 36.5236 61.2651 36.5236C59.8687 36.5236 58.5422 36.3141 57.3554 35.8952C56.1685 35.4763 55.0514 34.848 54.074 34.08C53.0966 33.312 52.2239 32.3695 51.4559 31.2873C50.7228 30.2401 50.0945 29.0881 49.5709 27.7965C49.0472 26.5049 48.6633 25.1435 48.384 23.6774C48.1396 22.2462 48 20.7451 48 19.2092C48 17.743 48.1396 16.2769 48.384 14.8456C48.6283 13.4144 49.0472 12.053 49.5709 10.7614C50.0945 9.4698 50.7577 8.24802 51.5606 7.16587C52.3635 6.04881 53.306 5.10629 54.3882 4.2685C55.5052 3.46561 56.727 2.83727 58.1233 2.34855C59.4848 1.89475 61.0207 1.65039 62.6614 1.65039C64.3021 1.65039 65.7333 1.96456 66.9551 2.558C68.1769 3.15144 69.1892 3.98923 69.9921 5.07138C70.795 6.15353 71.4233 7.41022 71.8073 8.87636C72.1913 10.3774 72.4357 11.9832 72.4357 13.7286Z" fill="#F8F9FF"/>
<path d="M94.8815 19.2443C94.8815 21.9671 94.6023 24.3758 94.0787 26.4703C93.555 28.5648 92.8569 30.3102 91.9493 31.7065C91.0417 33.1028 89.9944 34.185 88.7726 34.8831C87.5508 35.5813 86.2592 35.9653 84.8629 35.9653C83.6411 35.9653 82.4543 35.6511 81.3372 35.0577C80.2202 34.4642 79.2078 33.5217 78.3002 32.2999C77.3926 31.0782 76.6595 29.5422 76.0312 27.6572C75.4377 25.807 75.0189 23.6078 74.8094 21.1294C74.7047 19.9425 74.6698 18.7905 74.6698 17.7433C74.6698 15.1601 74.9141 12.891 75.4028 10.9013C75.8916 8.91153 76.5897 7.23594 77.4624 5.90943C78.37 4.51311 79.4173 3.50077 80.6041 2.80261C81.791 2.10445 83.0826 1.75537 84.444 1.75537C85.9102 1.75537 87.2716 2.10445 88.5283 2.80261C89.785 3.50077 90.902 4.54802 91.8445 5.97925C92.7871 7.41048 93.5201 9.2257 94.0787 11.4249C94.6023 13.6241 94.8815 16.2422 94.8815 19.2443ZM81.7561 17.848C81.7561 19.349 81.8608 20.6755 82.0354 21.8973C82.2099 23.0842 82.4543 24.1314 82.7684 24.9692C83.0826 25.807 83.4317 26.4703 83.8506 26.9241C84.2695 27.3779 84.6884 27.5873 85.1073 27.5873C85.4564 27.5873 85.8054 27.4128 86.1545 27.0986C86.5036 26.7845 86.8178 26.2957 87.0621 25.6325C87.3414 24.9692 87.5508 24.1664 87.6905 23.1889C87.8301 22.2115 87.9348 21.0595 87.9348 19.7679C87.9348 18.2669 87.8301 16.9404 87.6556 15.7535C87.481 14.5666 87.2367 13.5543 86.9225 12.7165C86.6083 11.8787 86.2592 11.2504 85.8404 10.7966C85.4564 10.3428 85.0026 10.1333 84.5488 10.1333C84.1997 10.1333 83.8506 10.3078 83.5015 10.622C83.1524 10.9362 82.8383 11.4249 82.5939 12.0882C82.3146 12.7514 82.1052 13.5543 81.9656 14.4968C81.8608 15.4393 81.7561 16.5564 81.7561 17.848Z" fill="#F8F9FF"/>
<path d="M111.463 1.89497C112.929 1.75534 114.465 1.68552 116.106 1.61571C117.711 1.54589 119.282 1.51098 120.748 1.47607C120.888 4.26872 121.063 7.06137 121.307 9.92383C121.516 12.7863 121.796 15.6488 122.04 18.5112C122.319 21.3737 122.599 24.2361 122.913 27.0986C123.227 29.9611 123.506 32.7537 123.751 35.5464C123.087 35.5464 122.389 35.5813 121.656 35.5813C120.923 35.5813 120.19 35.5813 119.457 35.5813C118.724 35.5813 117.991 35.6162 117.258 35.6162C116.525 35.6162 115.861 35.6511 115.198 35.7209C115.652 33.5566 116.071 30.8687 116.106 27.7619C116.141 24.1314 115.687 21.0246 115.128 18.6508C114.535 19.0348 112.301 20.6057 111.777 23.4682C111.603 24.4107 111.672 25.2485 111.777 25.8768C110.66 25.8768 109.543 25.8768 108.426 25.8768C108.531 25.2834 108.635 24.4456 108.426 23.4682C107.867 20.7802 105.529 19.4188 105.075 19.1396C104.761 21.4435 104.516 24.2012 104.586 27.3081C104.656 30.6243 105.075 33.5566 105.563 35.9653C104.516 35.9303 103.678 35.8954 103.12 35.8954C102.177 35.8954 102.003 35.8954 100.641 35.8954C99.9083 35.8954 99.1753 35.8954 98.4771 35.8605C97.7789 35.8605 97.1157 35.8256 96.4873 35.7907C96.5222 34.6387 96.5921 32.8235 96.6968 30.6243C96.8713 26.8892 97.0459 23.9569 97.2902 19.1396C97.2902 19.0697 97.3949 17.0451 97.6044 13.2401C97.7091 11.2852 97.8138 9.40021 97.9186 7.55008C98.0233 5.69995 98.128 3.91964 98.1978 2.27896C100.711 2.20914 103.26 2.13933 105.773 2.10442C106.052 3.08185 106.366 4.09418 106.68 5.21124C106.995 6.3283 107.309 7.44536 107.623 8.56241C107.937 9.71438 108.251 10.8314 108.6 11.9485C108.95 13.0656 109.229 14.1477 109.543 15.16C109.892 12.9259 110.241 10.7267 110.625 8.56241C111.009 6.39811 111.253 4.12909 111.463 1.89497Z" fill="#F8F9FF"/>
<path d="M125.252 3.15186C125.67 3.15186 126.054 3.15186 126.473 3.15186C126.892 3.15186 127.311 3.15186 127.73 3.15186C128.987 3.15186 130.278 3.18676 131.605 3.22167C132.931 3.25658 134.223 3.3264 135.48 3.39621C135.41 8.70224 135.375 13.9734 135.375 19.2096C135.375 24.4458 135.305 29.7169 135.131 35.0229C134.397 35.0578 133.664 35.0927 132.966 35.0927C132.233 35.0927 131.5 35.1277 130.767 35.1277L127.137 35.0927L125.461 35.1277C125.356 30.6594 125.321 26.2261 125.286 21.8277C125.252 17.3943 125.252 12.961 125.252 8.5277V3.15186Z" fill="#F8F9FF"/>
<path d="M138.272 2.94212C139.075 2.8723 139.843 2.83739 140.646 2.80249C141.414 2.76758 142.217 2.76758 143.02 2.76758H144.451C146.65 2.80249 148.57 3.18647 150.141 3.84973C151.747 4.51298 153.038 5.38568 154.086 6.46783C155.098 7.51508 155.866 8.73686 156.355 10.0634C156.843 11.4248 157.088 12.7862 157.088 14.1825C157.088 15.6487 156.843 17.045 156.355 18.4413C155.866 19.8376 155.168 21.0594 154.26 22.1416C153.353 23.2237 152.236 24.0964 150.944 24.7946C149.652 25.4578 148.186 25.8069 146.545 25.8069C146.406 25.8069 146.266 25.8069 146.127 25.8069C145.987 25.8069 145.847 25.772 145.708 25.772V27.8665C145.708 30.694 145.743 33.5216 145.778 36.3491C144.521 36.3491 143.264 36.3142 142.007 36.2793C140.751 36.2444 139.529 36.2095 138.272 36.1746C138.307 32.23 138.342 28.2854 138.342 24.3408C138.342 20.7452 138.342 17.1846 138.307 13.624C138.307 10.1332 138.272 6.53765 138.272 2.94212ZM145.463 10.3077C145.463 10.8313 145.428 11.3899 145.428 12.0182C145.428 12.6466 145.428 13.2749 145.394 13.9382C145.394 14.6014 145.394 15.2996 145.394 15.9628C145.394 16.661 145.394 17.3242 145.394 17.9526L145.428 20.4311C145.498 20.4311 145.568 20.4311 145.673 20.4311C145.743 20.4311 145.812 20.4311 145.917 20.4311C146.545 20.4311 147.104 20.2914 147.593 19.9773C148.081 19.6631 148.5 19.2442 148.815 18.7555C149.164 18.2668 149.408 17.6733 149.582 17.045C149.757 16.3817 149.827 15.7534 149.827 15.0901C149.827 14.4967 149.757 13.8683 149.582 13.3098C149.443 12.7164 149.199 12.1928 148.884 11.7739C148.57 11.3201 148.151 10.971 147.663 10.6917C147.174 10.4124 146.615 10.2728 145.917 10.2728C145.847 10.2728 145.778 10.2728 145.708 10.2728C145.603 10.2728 145.533 10.2728 145.463 10.3077Z" fill="#F8F9FF"/>
<path d="M171.993 23.3984C171.26 23.3635 170.492 23.3286 169.759 23.3286C169.166 23.3286 168.607 23.3286 168.049 23.3635C167.49 23.3635 166.897 23.3984 166.338 23.3984C166.338 23.922 166.338 24.3409 166.338 24.6551C166.338 24.9693 166.338 25.2834 166.338 25.5976C166.338 25.9118 166.338 26.191 166.373 26.5401C166.373 26.8543 166.408 27.2732 166.408 27.7968C166.827 27.7968 167.351 27.7619 167.909 27.7619C168.503 27.7619 169.131 27.727 169.759 27.727C170.423 27.727 171.086 27.6921 171.749 27.6572C172.412 27.6223 173.076 27.5874 173.669 27.5874C174.263 27.5524 174.821 27.5524 175.31 27.5175C175.798 27.4826 176.182 27.4826 176.462 27.4477C176.532 28.879 176.601 30.3102 176.601 31.7414C176.601 33.1726 176.636 34.6039 176.706 36.0351H176.601C176.182 36.0351 175.484 36.0351 174.577 36.0002C173.634 36.0002 172.587 35.9653 171.4 35.9304C170.213 35.8955 168.956 35.8955 167.665 35.8606C166.338 35.8257 165.117 35.7908 163.93 35.7908C162.743 35.7558 161.731 35.7558 160.788 35.7209C159.88 35.7209 159.217 35.686 158.868 35.686H158.694C158.694 34.7435 158.659 33.7661 158.659 32.7538C158.659 31.7414 158.659 30.6942 158.659 29.6469C158.659 27.3779 158.659 25.0391 158.659 22.6304C158.659 20.2218 158.659 17.8131 158.659 15.4044C158.659 13.4496 158.659 11.4947 158.659 9.6097C158.659 7.72466 158.624 5.87453 158.589 4.09422C161.102 4.05931 163.616 4.02441 166.129 4.02441C168.677 3.95459 171.191 3.95459 173.704 3.95459H175.938C175.973 5.17637 176.008 6.43306 176.043 7.65485C176.078 8.87663 176.078 10.0984 176.078 11.3551V11.5645C174.402 11.5645 172.692 11.5296 170.981 11.4598C169.271 11.39 167.56 11.3551 165.885 11.2504C165.885 11.774 165.885 12.2627 165.885 12.7165C165.885 13.1703 165.885 13.5892 165.885 14.043C165.885 14.4619 165.885 14.8459 165.885 15.2648C165.885 15.6837 165.919 16.1375 165.919 16.6262H166.967C167.56 16.6262 168.154 16.6262 168.782 16.6262C169.41 16.6262 170.039 16.6262 170.632 16.6262L171.959 16.6611V23.3984H171.993Z" fill="#F8F9FF"/>
<path d="M178.242 3.4309C180.022 3.39599 181.838 3.36108 183.618 3.36108C185.398 3.32617 187.213 3.32617 188.994 3.32617C190.495 3.32617 191.996 3.32617 193.497 3.36108C194.963 3.36108 196.464 3.39599 198 3.4309V3.50071C198 4.58286 197.965 5.66501 197.93 6.74716C197.895 7.82931 197.86 8.91146 197.86 9.99361C197.86 10.3078 197.86 10.622 197.86 10.9012C197.86 11.2154 197.895 11.4947 197.895 11.8088C197.546 11.8088 197.127 11.7739 196.639 11.7739C196.185 11.7739 195.696 11.7739 195.172 11.7739H191.717C191.751 15.7884 191.821 19.733 191.891 23.6427C191.961 27.5524 192.031 31.497 192.031 35.5114V36.1747C191.542 36.1747 191.018 36.2096 190.53 36.2096C190.006 36.2096 189.517 36.2096 189.029 36.2096H183.723C183.758 34.3245 183.792 32.4046 183.827 30.4497C183.862 28.4949 183.932 26.5051 183.967 24.5154C184.002 22.5256 184.072 20.5359 184.107 18.5461C184.141 16.5563 184.176 14.6364 184.176 12.7514L184.141 11.9136H183.583C182.745 11.9136 181.872 11.9136 180.965 11.9485C180.057 11.9834 179.219 11.9834 178.382 11.9834L178.417 10.4823C178.417 9.29545 178.417 8.14349 178.382 6.95661C178.312 5.76974 178.277 4.58286 178.242 3.4309Z" fill="#F8F9FF"/>
<path d="M112.58 31.0431C113.12 31.0431 113.557 30.2929 113.557 29.3675C113.557 28.4421 113.12 27.6919 112.58 27.6919C112.04 27.6919 111.603 28.4421 111.603 29.3675C111.603 30.2929 112.04 31.0431 112.58 31.0431Z" fill="#F8F9FF"/>
<path d="M107.763 31.0431C108.302 31.0431 108.74 30.2929 108.74 29.3675C108.74 28.4421 108.302 27.6919 107.763 27.6919C107.223 27.6919 106.785 28.4421 106.785 29.3675C106.785 30.2929 107.223 31.0431 107.763 31.0431Z" fill="#F8F9FF"/>
<path d="M112.929 33.6262C112.859 33.7309 112.51 34.2546 111.847 34.3244C111.463 34.3593 111.044 34.2196 110.73 33.9404C110.765 33.9055 110.8 33.8706 110.835 33.8357L111.742 32.2648C111.952 31.8808 111.672 31.3921 111.253 31.3921H109.438C108.984 31.3921 108.705 31.8808 108.949 32.2648L109.857 33.8357C109.892 33.9055 109.927 33.9404 109.997 33.9753C109.822 34.1149 109.578 34.2895 109.229 34.3244C108.705 34.3942 108.147 34.1149 107.867 33.6262L107.588 33.8007C107.937 34.3244 108.496 34.6385 109.124 34.6385C109.194 34.6385 109.229 34.6385 109.299 34.6385C109.822 34.5687 110.171 34.3244 110.416 34.08C110.451 34.08 110.485 34.08 110.52 34.08C110.869 34.4291 111.323 34.6385 111.812 34.6385C111.882 34.6385 111.917 34.6385 111.986 34.6385C112.789 34.5687 113.243 33.9055 113.313 33.8007L112.929 33.6262Z" fill="#F8F9FF"/>
</svg>
