<svg width="156" height="244" viewBox="0 0 156 244" fill="none" xmlns="http://www.w3.org/2000/svg">
<g filter="url(#filter0_d_149_37)">
<g clip-path="url(#clip0_149_37)">
<path d="M148.178 197.189C144.229 182.969 140.279 168.748 136.33 154.528C138.857 123.322 141.385 92.1164 143.913 60.9106L122.901 2.05408L102.048 44.4782C95.8073 43.6092 89.0142 43.3722 81.826 43.9252C76.0597 44.3992 70.6883 45.4262 65.7909 46.7693C56.233 33.4179 46.6752 20.0666 37.1963 6.7942L32.0619 63.6757C33.4837 76.474 34.9845 89.1934 36.4064 101.992C29.6922 110.287 22.9779 118.582 16.2637 126.877C24.9527 135.568 33.6417 144.258 42.3307 152.948L77.8765 152.158C77.7975 153.106 77.7185 154.054 77.6395 155.002C76.2967 154.686 74.9538 154.528 73.532 154.528C63.7371 154.528 55.7591 162.507 55.7591 172.304C55.7591 188.736 55.7591 205.247 55.7591 221.68C58.0498 223.26 65.001 227.605 74.7168 227.21C83.0109 226.894 88.9352 223.339 91.3049 221.68V187.788C93.5166 186.998 95.8863 186.287 98.414 185.734C98.414 197.663 98.414 209.672 98.414 221.601C100.705 223.181 107.656 227.526 117.372 227.131C125.666 226.815 131.59 223.26 133.96 221.601V188.894C140.753 191.738 145.571 195.135 148.178 197.189Z" fill="#F8F9FF"/>
<path d="M116.187 228C107.577 228 101.1 224.445 97.9401 222.312L97.6241 222.075V186.761C95.8073 187.235 93.9116 187.709 92.0948 188.341V222.075L91.7788 222.312C88.2242 224.761 82.4579 227.684 74.7958 228C65.5539 228.395 58.6817 224.603 55.3641 222.312L55.0482 222.075V172.304C55.0482 162.033 63.3422 153.738 73.611 153.738C74.7168 153.738 75.9017 153.817 77.0076 154.054L77.0866 152.948L42.0937 153.738L15.3158 126.956L35.6165 101.755L31.272 63.6757V63.5967L36.5643 4.58212L66.1068 45.8212C71.2412 44.4782 76.4546 43.5301 81.747 43.1351C88.3032 42.5821 95.0174 42.7401 101.574 43.6091L122.98 0L144.703 60.7526V60.9106L137.119 154.37L149.6 199.164L147.704 197.663C143.755 194.582 139.41 191.975 134.75 190V221.996L134.434 222.233C130.879 224.682 125.113 227.605 117.451 227.921C116.977 228 116.582 228 116.187 228ZM99.2039 221.206C102.443 223.339 108.92 226.657 117.372 226.341C124.402 226.104 129.852 223.418 133.17 221.206V187.709L134.276 188.183C138.699 190 142.965 192.37 146.835 195.135L135.54 154.528V154.37L143.123 60.9106L122.822 4.02911L102.522 45.2682L101.969 45.1892C95.3334 44.2412 88.6192 44.0832 81.905 44.7152C76.5336 45.1892 71.2412 46.1372 66.0279 47.5593L65.4749 47.7173L65.159 47.2432L37.7492 8.92723L32.8518 63.5967L37.1963 102.15L17.2906 126.719L42.6466 152.079L78.7454 151.289L78.3504 155.95L77.4815 155.713C76.2177 155.397 74.8748 155.239 73.532 155.239C64.1321 155.239 56.549 162.823 56.549 172.225V221.206C59.7876 223.339 66.2648 226.657 74.7168 226.341C81.747 226.104 87.1974 223.418 90.515 221.206V187.235L91.0679 187.077C93.4376 186.208 95.8863 185.576 98.2561 185.023L99.2039 184.786V221.206Z" fill="#B80849"/>
<path d="M143.406 60.8979L136.268 149.016C136.255 148.914 136.243 148.81 136.229 148.706C135.774 145.261 135.008 140.622 133.762 135.856C132.517 131.094 130.787 126.179 128.394 122.196C126.11 118.395 123.185 115.383 119.446 114.22C126.702 94.2145 122.761 74.5898 110.74 65.5873L110.156 65.1635C109.676 64.816 106.873 62.9008 102.79 61.5229C98.6897 60.1391 93.2602 59.2849 87.5941 61.1469H87.5931C75.4343 65.1736 67.1023 80.171 69.056 97.7455C66.598 99.7619 64.1411 101.775 61.683 103.785L46.517 116.173C43.9892 118.24 41.4609 120.308 38.933 122.382L38.8568 122.445L38.8099 122.531C37.9099 124.193 35.9776 124.362 35.1517 123.654L35.1468 123.649L35.0218 123.529C34.4255 122.878 34.2326 121.43 35.1996 120.182L58.8558 99.1264L58.9906 99.0063L59.0179 98.8286L58.5238 98.7524C59.018 98.8284 59.0179 98.8281 59.0179 98.8276V98.8256C59.0182 98.8239 59.0194 98.8211 59.0199 98.8178C59.0209 98.8113 59.022 98.8018 59.0238 98.7895C59.0276 98.7641 59.0333 98.7262 59.0404 98.6772C59.0545 98.5788 59.075 98.4334 59.1 98.2455C59.1499 97.8698 59.2184 97.3217 59.2933 96.6313C59.4431 95.2504 59.6187 93.2972 59.7211 91.0043C59.9255 86.4244 59.8404 80.4632 58.6674 74.9965C57.498 69.5471 55.2232 64.478 50.9564 61.8325C46.7916 59.2503 40.8879 59.069 32.6371 62.7807L37.5726 8.10199L65.3841 46.9809L65.597 47.2787L65.9447 47.1655H65.9466C65.9483 47.1649 65.9517 47.1637 65.9554 47.1625C65.9628 47.1602 65.9745 47.1566 65.9896 47.1518C66.0203 47.1421 66.0667 47.1276 66.1283 47.1088C66.2519 47.0711 66.4371 47.0153 66.68 46.9457C67.1662 46.8065 67.8847 46.6103 68.809 46.3842C70.6581 45.932 73.3308 45.3606 76.6156 44.8842C83.1874 43.9312 92.1989 43.3624 101.97 44.893L102.334 44.9496L102.496 44.6196L122.828 3.25726L143.406 60.8979Z" fill="#FF1D8B" stroke="#B80849"/>
<path d="M144.203 60.8389V60.8936L136.658 154.028H136.006C135.853 152.011 135.127 144.225 133.022 136.113C131.812 131.451 130.138 126.65 127.838 122.767C125.544 118.891 122.582 115.858 118.766 114.86H118.767L118.438 114.771L118.547 114.502H118.547L118.551 114.49C125.859 94.8681 122.346 74.7485 109.68 65.873C109.095 65.4551 106.348 63.595 102.404 62.2734C98.4506 60.9488 93.2594 60.1541 87.8317 61.9365L87.8287 61.9375C75.4384 66.0685 67.964 81.2908 69.8756 97.9404L69.8776 97.9609L69.8824 97.9814L69.902 98.0811L39.566 122.856L39.5006 122.909L39.4557 122.981C38.8991 123.886 37.9959 124.512 36.9508 124.725C36.018 124.866 35.2274 124.712 34.6598 124.271L34.6529 124.266L34.4742 124.113C34.0772 123.731 33.8075 123.147 33.7457 122.416C33.6764 121.44 33.9509 120.468 34.6461 119.627L34.694 119.579L58.1451 98.7314L58.2838 98.6084L58.3082 98.4248C58.5073 96.9516 59.3612 90.08 58.8942 82.6152C58.6606 78.8831 58.0958 74.9821 56.943 71.5254C55.7913 68.0724 54.0384 65.0191 51.399 63.0391L51.3971 63.0381L50.9635 62.7295C46.421 59.6589 40.105 60.1582 32.2565 63.8496L31.7662 64.0635L37.0192 5.8916L65.6998 46.1113L65.9059 46.4004L66.2457 46.3018C69.2188 45.441 84.2262 41.5123 101.502 44.0254L101.862 44.0771L102.022 43.751L122.907 1.28125L144.203 60.8389ZM122.374 3.80859L102.232 44.7217L102.04 44.6943H102.039C92.342 43.1849 83.3668 43.7419 76.7985 44.6846C73.5127 45.1562 70.826 45.7244 68.9488 46.1807C68.0102 46.4088 67.2728 46.6097 66.7643 46.7559C66.5102 46.8289 66.3122 46.8886 66.1744 46.9316C66.1061 46.953 66.0513 46.9701 66.0113 46.9834C65.9916 46.99 65.9735 46.9967 65.9586 47.002C65.9585 47.002 65.9576 47.0016 65.9567 47.002L65.7545 47.0596L38.235 8.63574L37.4508 7.54199L37.3307 8.88184L32.5113 62.2881L32.4361 63.125L33.2076 62.792C41.1988 59.3443 47.3763 59.3379 51.7447 62.6523L51.7477 62.6543C54.4985 64.7035 56.3541 67.8864 57.5729 71.582C58.7905 75.2746 59.359 79.438 59.5651 83.3926C59.9767 91.2931 58.9374 98.269 58.8248 98.8027L58.7867 98.9551L35.0465 120.104L35.0221 120.127L34.9996 120.152C34.4226 120.826 34.2477 121.669 34.2477 122.374V122.416L34.2545 122.456C34.3408 122.974 34.53 123.527 35.0006 123.88C35.4266 124.199 36.1252 124.395 36.8287 124.205C37.764 124.015 38.5142 123.449 38.9762 122.617L38.986 122.598L39.0279 122.513L39.0328 122.508L69.0299 98.0342L69.2389 97.8633L69.2106 97.5938C67.4088 80.5917 75.175 65.4736 87.5904 61.3857L87.5934 61.3848C98.5973 57.6906 108.72 64.5118 109.972 65.3477H109.973C122.515 74.2525 126.417 94.1175 119.349 113.911L119.178 114.39L119.66 114.553C124.695 116.257 128.315 121.446 130.88 127.689C133.435 133.906 134.89 141.03 135.677 146.385L136.67 146.353L143.621 61.0303L143.63 60.9229L143.593 60.8213L123.294 3.86133L122.896 2.74707L122.374 3.80859Z" stroke="#B80849"/>
<path d="M17.0536 126.877C19.8183 121.505 25.5056 118.345 31.272 118.977C38.6181 119.767 42.0937 126.403 42.3307 126.877C38.3811 131.38 34.4316 135.805 30.4821 140.308C25.9796 135.805 21.5561 131.301 17.0536 126.877Z" fill="#382B2B"/>
<path d="M30.4821 140.861L16.5797 126.956L16.7377 126.719C19.5814 121.189 25.4267 117.95 31.351 118.582C39.0131 119.451 42.5676 126.403 42.7256 126.719L42.8836 126.956L30.4821 140.861ZM17.5276 126.798L30.4821 139.755L41.8567 126.877C41.1458 125.613 37.7492 120.162 31.193 119.451C25.7426 118.74 20.2923 121.742 17.5276 126.798Z" fill="#2D2727"/>
<path d="M99.2039 185.971L97.7031 185.576C97.8611 185.102 101.258 173.331 109.631 170.17C113.659 168.59 118.162 169.38 122.98 172.462L122.111 173.805C117.767 171.039 113.738 170.328 110.105 171.672C102.522 174.516 99.2039 185.813 99.2039 185.971Z" fill="#B80849"/>
<path d="M133.065 218.078L127.325 218.804L131.173 214.508L131.551 214.086L131.085 213.764L121.42 207.072L133.065 199.308V218.078Z" fill="#FF1D8B" stroke="#B80849"/>
<path d="M133.855 218.712L125.28 219.825L129.988 214.588L130.366 214.165L129.9 213.843L120 206.994L133.855 197.805V218.712ZM132.498 199.459L121.677 206.648L121.063 207.056L121.668 207.476L131.236 214.106L127.662 218.108L126.764 219.114L128.102 218.937L132.841 218.305L133.275 218.246V198.943L132.498 199.459Z" fill="#FF1D8B" stroke="#B80849"/>
<path d="M68.2947 206.678L58.6345 213.369L58.1687 213.691L58.5466 214.113L62.3933 218.409L56.654 217.683V198.987L68.2947 206.678Z" fill="#FF1D8B" stroke="#B80849"/>
<path d="M69.7176 206.678L59.8192 213.527L59.3524 213.849L59.7313 214.272L64.4374 219.509L55.8641 218.396V197.489L69.7176 206.678ZM56.4442 217.93L56.8778 217.988L61.6171 218.621L62.9549 218.798L62.0565 217.792L58.4833 213.789L68.0507 207.16L68.6532 206.742L68.0448 206.334L57.2225 199.065L56.4442 198.543V217.93Z" fill="#FF1D8B" stroke="#B80849"/>
<path d="M110.263 42.3451C114.449 32.6278 118.715 22.8316 122.901 13.1143C126.298 23.3846 129.773 33.6549 133.17 43.9251C125.508 43.3721 117.925 42.8191 110.263 42.3451Z" fill="#F8F9FF"/>
<path d="M133.723 44.3201L109.71 42.6611L122.98 12.0083L133.723 44.3201ZM110.816 41.9501L132.617 43.4511L122.822 14.2204L110.816 41.9501Z" fill="#B80849"/>
<path d="M49.4398 108.312C53.148 108.312 56.154 100.354 56.154 90.5364C56.154 80.7193 53.148 72.7609 49.4398 72.7609C45.7317 72.7609 42.7256 80.7193 42.7256 90.5364C42.7256 100.354 45.7317 108.312 49.4398 108.312Z" fill="#382B2B"/>
<path d="M49.4398 108.707C45.4903 108.707 42.3307 100.728 42.3307 90.5364C42.3307 80.3451 45.4903 72.3659 49.4398 72.3659C53.3894 72.3659 56.549 80.3451 56.549 90.5364C56.549 100.728 53.3894 108.707 49.4398 108.707ZM49.4398 73.1559C46.0432 73.1559 43.1206 81.1351 43.1206 90.5364C43.1206 99.9376 46.0432 107.917 49.4398 107.917C52.8364 107.917 55.7591 99.9376 55.7591 90.5364C55.7591 81.1351 52.8364 73.1559 49.4398 73.1559Z" fill="#2D2727"/>
<path d="M82.6159 115.027C86.9785 115.027 90.515 105.654 90.515 94.0915C90.515 82.5291 86.9785 73.1559 82.6159 73.1559C78.2534 73.1559 74.7169 82.5291 74.7169 94.0915C74.7169 105.654 78.2534 115.027 82.6159 115.027Z" fill="#382B2B"/>
<path d="M82.6159 115.422C77.9555 115.422 74.3219 106.021 74.3219 94.0915C74.3219 82.1622 77.9555 72.7609 82.6159 72.7609C87.2764 72.7609 90.9099 82.1622 90.9099 94.0915C90.9099 106.021 87.2764 115.422 82.6159 115.422ZM82.6159 73.5509C78.5084 73.5509 75.1118 82.9522 75.1118 94.0915C75.1118 105.231 78.5874 114.632 82.6159 114.632C86.7234 114.632 90.12 105.231 90.12 94.0915C90.12 82.9522 86.7234 73.5509 82.6159 73.5509Z" fill="#2D2727"/>
<path d="M93.2006 161.717C95.6494 159.426 97.2292 156.108 97.2292 152.474C97.2292 145.522 91.6208 139.913 84.6697 139.913C77.7185 139.913 72.1101 145.522 72.1101 152.474V152.553H31.4299C30.561 146.391 25.3477 141.651 18.9494 141.651C11.9982 141.651 6.3899 147.26 6.3899 154.212C6.3899 157.451 7.57476 160.295 9.54953 162.586C7.57476 164.798 6.3899 167.721 6.3899 170.961C6.3899 177.913 11.9982 183.522 18.9494 183.522C25.1107 183.522 30.2451 179.098 31.351 173.252H72.2681C73.374 179.098 78.5084 183.522 84.6697 183.522C91.6208 183.522 97.2292 177.913 97.2292 170.961C97.2292 167.247 95.6494 164.008 93.2006 161.717Z" fill="#00D8CD"/>
<path d="M84.6697 184.312C78.4294 184.312 73.058 180.046 71.6362 174.042H31.9829C30.5611 180.046 25.1897 184.312 18.9494 184.312C11.6033 184.312 5.6 178.308 5.6 170.961C5.6 167.958 6.62688 164.956 8.52265 162.586C6.62688 160.216 5.6 157.293 5.6 154.212C5.6 146.865 11.6033 140.861 18.9494 140.861C25.3477 140.861 30.877 145.522 32.0619 151.763H71.2412C71.6362 144.653 77.4815 139.123 84.5907 139.123C91.9368 139.123 97.9401 145.127 97.9401 152.474C97.9401 155.871 96.5972 159.268 94.2275 161.717C96.5972 164.166 97.9401 167.484 97.9401 170.961C98.0191 178.308 92.0158 184.312 84.6697 184.312ZM30.719 172.462H72.979L73.137 173.094C74.1639 178.703 79.0613 182.732 84.7486 182.732C91.2259 182.732 96.5183 177.439 96.5183 170.961C96.5183 167.721 95.1754 164.561 92.7267 162.27L92.0948 161.717L92.7267 161.164C95.0964 158.952 96.5183 155.792 96.5183 152.474C96.5183 145.996 91.2259 140.703 84.7486 140.703C78.2714 140.703 72.979 145.996 72.979 152.474V153.264L72.1891 153.343H30.719L30.64 152.632C29.8501 146.786 24.7947 142.441 18.9494 142.441C12.4722 142.441 7.17981 147.734 7.17981 154.291C7.17981 157.135 8.20669 159.979 10.1815 162.112L10.6554 162.665L10.1815 163.218C8.28568 165.351 7.17981 168.116 7.17981 171.04C7.17981 177.518 12.4722 182.811 18.9494 182.811C24.6367 182.811 29.5342 178.782 30.561 173.173L30.719 172.462Z" fill="#00B7A9"/>
</g>
</g>
<defs>
<filter id="filter0_d_149_37" x="-1.43051e-06" y="0" width="155.2" height="243.6" filterUnits="userSpaceOnUse" color-interpolation-filters="sRGB">
<feFlood flood-opacity="0" result="BackgroundImageFix"/>
<feColorMatrix in="SourceAlpha" type="matrix" values="0 0 0 0 0 0 0 0 0 0 0 0 0 0 0 0 0 0 127 0" result="hardAlpha"/>
<feOffset dy="10"/>
<feGaussianBlur stdDeviation="2.8"/>
<feComposite in2="hardAlpha" operator="out"/>
<feColorMatrix type="matrix" values="0 0 0 0 0 0 0 0 0 0 0 0 0 0 0 0 0 0 0.25 0"/>
<feBlend mode="normal" in2="BackgroundImageFix" result="effect1_dropShadow_149_37"/>
<feBlend mode="normal" in="SourceGraphic" in2="effect1_dropShadow_149_37" result="shape"/>
</filter>
<clipPath id="clip0_149_37">
<rect width="144" height="228" fill="white" transform="translate(5.6)"/>
</clipPath>
</defs>
</svg>
