<svg width="632" height="89" viewBox="0 0 632 89" fill="none" xmlns="http://www.w3.org/2000/svg">
<path d="M22.3467 13.9727C22.3467 14.5788 22.2669 15.2168 22.1074 15.8867C21.9798 16.5566 21.7565 17.1787 21.4375 17.7529C21.1185 18.3271 20.7038 18.8057 20.1934 19.1885C19.6829 19.5713 19.0609 19.7627 18.3271 19.7627C17.2106 19.7627 16.3812 19.5713 15.8389 19.1885C15.2965 18.7738 14.9137 18.2633 14.6904 17.6572C14.4671 17.0511 14.3395 16.4131 14.3076 15.7432C14.3076 15.0413 14.2917 14.3874 14.2598 13.7812C14.2279 13.1751 14.1162 12.6807 13.9248 12.2979C13.7653 11.8831 13.3984 11.6758 12.8242 11.6758C12.1862 11.6758 11.6279 11.915 11.1494 12.3936C10.6709 12.8402 10.2562 13.4303 9.90527 14.1641C9.55436 14.8978 9.2513 15.7272 8.99609 16.6523C8.77279 17.5775 8.58138 18.5026 8.42188 19.4277C8.29427 20.321 8.19857 21.1823 8.13477 22.0117C8.07096 22.8092 8.03906 23.4632 8.03906 23.9736C8.03906 24.6436 8.05501 25.4411 8.08691 26.3662C8.15072 27.2913 8.31022 28.1846 8.56543 29.0459C8.82064 29.8753 9.20345 30.5931 9.71387 31.1992C10.2243 31.7734 10.958 32.0605 11.915 32.0605C12.5531 32.0605 13.1751 31.9808 13.7812 31.8213C14.3874 31.6618 14.9935 31.4863 15.5996 31.2949C16.2057 31.0716 16.8118 30.8802 17.418 30.7207C18.056 30.5612 18.694 30.4814 19.332 30.4814C20.0658 30.4814 20.6719 30.7845 21.1504 31.3906C21.6289 31.9648 21.8682 32.6188 21.8682 33.3525C21.8682 34.3734 21.5492 35.3304 20.9111 36.2236C20.2731 37.085 19.4756 37.8506 18.5186 38.5205C17.5934 39.1904 16.5726 39.7168 15.4561 40.0996C14.3714 40.4824 13.3825 40.6738 12.4893 40.6738C10.1924 40.6738 8.24642 40.1475 6.65137 39.0947C5.05632 38.0739 3.76432 36.75 2.77539 35.123C1.78646 33.4642 1.06868 31.6299 0.62207 29.6201C0.207357 27.5785 0 25.5527 0 23.543C0 22.2031 0.127604 20.7357 0.382812 19.1406C0.638021 17.5456 1.02083 15.9505 1.53125 14.3555C2.04167 12.7285 2.67969 11.1654 3.44531 9.66602C4.24284 8.16667 5.16797 6.84277 6.2207 5.69434C7.27344 4.5459 8.45378 3.62077 9.76172 2.91895C11.1016 2.21712 12.569 1.86621 14.1641 1.86621C15.7272 1.86621 17.0352 2.26497 18.0879 3.0625C19.1406 3.82812 19.986 4.81706 20.624 6.0293C21.262 7.20964 21.7087 8.51758 21.9639 9.95312C22.2191 11.3568 22.3467 12.6966 22.3467 13.9727ZM45.2197 24.6436C45.2197 26.3981 45.0443 28.1367 44.6934 29.8594C44.3424 31.582 43.7523 33.1292 42.9229 34.501C42.0934 35.8408 40.9769 36.9255 39.5732 37.7549C38.2015 38.5843 36.4788 38.999 34.4053 38.999C32.3636 38.999 30.6569 38.6003 29.2852 37.8027C27.9134 36.9733 26.8128 35.8887 25.9834 34.5488C25.1859 33.209 24.6117 31.6937 24.2607 30.0029C23.9417 28.3122 23.7822 26.5895 23.7822 24.835C23.7822 22.9209 24.0055 21.0228 24.4521 19.1406C24.5479 18.6302 24.7233 17.9284 24.9785 17.0352C25.2656 16.11 25.6165 15.2168 26.0312 14.3555C26.4779 13.4622 26.9723 12.6966 27.5146 12.0586C28.0889 11.4206 28.7109 11.1016 29.3809 11.1016C30.0189 11.1016 30.5293 11.277 30.9121 11.6279C31.2949 11.9788 31.598 12.4255 31.8213 12.9678C32.0446 13.4782 32.1882 14.0365 32.252 14.6426C32.3158 15.2168 32.3477 15.7432 32.3477 16.2217C32.3477 16.9554 32.2839 17.6732 32.1562 18.375C32.0605 19.0768 31.9489 19.7786 31.8213 20.4805C31.6937 21.4375 31.5661 22.3945 31.4385 23.3516C31.3428 24.3086 31.2949 25.2656 31.2949 26.2227C31.2949 26.7012 31.3109 27.2435 31.3428 27.8496C31.4066 28.4238 31.5342 28.9821 31.7256 29.5244C31.917 30.0667 32.1882 30.5293 32.5391 30.9121C32.89 31.263 33.3844 31.4385 34.0225 31.4385C34.8519 31.4385 35.5059 31.2152 35.9844 30.7686C36.4948 30.3219 36.8617 29.7637 37.085 29.0938C37.3402 28.4238 37.4997 27.7061 37.5635 26.9404C37.6273 26.1748 37.6592 25.473 37.6592 24.835C37.6592 23.4313 37.5635 22.0596 37.3721 20.7197C37.1807 19.348 37.0052 17.9603 36.8457 16.5566C36.8138 16.3971 36.7979 16.1738 36.7979 15.8867C36.7979 15.4082 36.8776 14.9297 37.0371 14.4512C37.1966 13.9727 37.4199 13.542 37.707 13.1592C37.9941 12.7764 38.3451 12.4733 38.7598 12.25C39.1745 11.9948 39.637 11.8672 40.1475 11.8672C40.8493 11.8672 41.4714 12.1224 42.0137 12.6328C42.556 13.1113 43.0026 13.7493 43.3535 14.5469C43.7363 15.3125 44.0394 16.1898 44.2627 17.1787C44.5179 18.1357 44.7093 19.0928 44.8369 20.0498C44.9964 20.9749 45.0921 21.8522 45.124 22.6816C45.1878 23.5111 45.2197 24.165 45.2197 24.6436ZM68.4756 31.582C68.4756 32.1562 68.4437 32.9059 68.3799 33.8311C68.348 34.7562 68.2204 35.6654 67.9971 36.5586C67.7738 37.4199 67.4229 38.1696 66.9443 38.8076C66.4658 39.4456 65.7959 39.7646 64.9346 39.7646C63.7542 39.7646 62.8451 39.3818 62.207 38.6162C61.569 37.8506 61.266 36.8936 61.2979 35.7451C60.277 36.6383 59.1126 37.3402 57.8047 37.8506C56.5286 38.361 55.2207 38.6162 53.8809 38.6162C52.9557 38.6162 52.0785 38.3929 51.249 37.9463C50.4196 37.4997 49.6859 36.9255 49.0479 36.2236C48.4098 35.5218 47.8994 34.7402 47.5166 33.8789C47.1338 32.9857 46.9424 32.1084 46.9424 31.2471C46.9424 29.7158 47.4049 28.376 48.3301 27.2275C49.2871 26.0791 50.4515 25.1061 51.8232 24.3086C53.195 23.4792 54.6465 22.8252 56.1777 22.3467C57.7409 21.8682 59.1286 21.5492 60.3408 21.3896C60.3408 21.2301 60.3408 21.0866 60.3408 20.959C60.3727 20.8314 60.3887 20.6878 60.3887 20.5283C60.3887 19.5394 60.1175 18.7419 59.5752 18.1357C59.0329 17.5296 58.2673 17.2266 57.2783 17.2266C56.4808 17.2266 55.7949 17.3701 55.2207 17.6572C54.6465 17.9124 54.1042 18.2155 53.5938 18.5664C53.0833 18.8854 52.5729 19.1885 52.0625 19.4756C51.5521 19.7308 50.9779 19.8584 50.3398 19.8584C49.638 19.8584 49.0319 19.6351 48.5215 19.1885C48.043 18.7419 47.8037 18.1676 47.8037 17.4658C47.8037 16.4131 48.1068 15.4561 48.7129 14.5947C49.3509 13.7334 50.1325 13.0156 51.0576 12.4414C52.0146 11.8353 53.0355 11.3727 54.1201 11.0537C55.2367 10.7028 56.2575 10.5273 57.1826 10.5273C58.0439 10.5273 58.9053 10.639 59.7666 10.8623C60.6279 11.0537 61.4414 11.3727 62.207 11.8193C62.9727 12.234 63.6585 12.7604 64.2646 13.3984C64.9027 14.0046 65.4131 14.7223 65.7959 15.5518C66.3701 16.7321 66.8327 17.9922 67.1836 19.332C67.5345 20.64 67.8057 21.9958 67.9971 23.3994C68.1885 24.7712 68.3161 26.1589 68.3799 27.5625C68.4437 28.9342 68.4756 30.2741 68.4756 31.582ZM60.8193 30.0508L60.6758 26.7969C60.612 26.7969 60.5482 26.7969 60.4844 26.7969C60.4206 26.765 60.3568 26.749 60.293 26.749C59.8783 26.749 59.3519 26.8607 58.7139 27.084C58.1077 27.2754 57.5176 27.5625 56.9434 27.9453C56.3691 28.2962 55.8747 28.695 55.46 29.1416C55.0771 29.5882 54.8857 30.0508 54.8857 30.5293C54.8857 30.9759 55.0452 31.279 55.3643 31.4385C55.6833 31.598 56.0501 31.6777 56.4648 31.6777C57.1667 31.6777 57.9163 31.5023 58.7139 31.1514C59.5114 30.7686 60.2132 30.4017 60.8193 30.0508ZM82.4961 40.0518C80.2311 40.0518 78.4606 39.7487 77.1846 39.1426C75.9404 38.5684 74.9993 37.7389 74.3613 36.6543C73.7552 35.5697 73.3883 34.2617 73.2607 32.7305C73.1331 31.1992 73.0693 29.4925 73.0693 27.6104C73.0693 26.111 73.1172 24.6117 73.2129 23.1123C73.3086 21.5811 73.4521 19.9541 73.6436 18.2314C73.1969 18.2314 72.846 18.2474 72.5908 18.2793C72.3356 18.2793 72.1283 18.2793 71.9688 18.2793C70.9479 18.2793 70.0706 18.056 69.3369 17.6094C68.5713 17.1628 68.1885 16.4769 68.1885 15.5518C68.1885 14.9775 68.4118 14.4671 68.8584 14.0205C69.2731 13.5739 69.8154 13.1911 70.4854 12.8721C71.1553 12.5531 71.873 12.2979 72.6387 12.1064C73.4362 11.915 74.1859 11.7874 74.8877 11.7236C74.8877 10.8304 74.9515 9.84147 75.0791 8.75684C75.2067 7.6722 75.43 6.66732 75.749 5.74219C76.0999 4.78516 76.5625 3.98763 77.1367 3.34961C77.7109 2.71159 78.4447 2.39258 79.3379 2.39258C79.8483 2.39258 80.2949 2.55208 80.6777 2.87109C81.0924 3.1582 81.4274 3.54102 81.6826 4.01953C81.9378 4.46615 82.1292 4.97656 82.2568 5.55078C82.3844 6.125 82.4482 6.68327 82.4482 7.22559C82.4482 7.86361 82.4004 8.51758 82.3047 9.1875C82.209 9.85742 82.0335 10.6868 81.7783 11.6758C82.3206 11.612 82.6875 11.5801 82.8789 11.5801C83.0703 11.5482 83.2458 11.5322 83.4053 11.5322C83.9476 11.5322 84.5059 11.5801 85.0801 11.6758C85.6862 11.7715 86.2285 11.931 86.707 12.1543C87.2174 12.3776 87.6322 12.6807 87.9512 13.0635C88.2702 13.4144 88.4297 13.8451 88.4297 14.3555C88.4297 14.9297 88.1904 15.4401 87.7119 15.8867C87.2653 16.3333 86.6911 16.7161 85.9893 17.0352C85.2874 17.3542 84.5378 17.6094 83.7402 17.8008C82.9427 17.9603 82.193 18.0719 81.4912 18.1357C81.2998 19.4437 81.1562 20.6559 81.0605 21.7725C80.9967 22.8571 80.917 23.9577 80.8213 25.0742C80.7575 25.6165 80.6937 26.1748 80.6299 26.749C80.598 27.2913 80.582 27.8496 80.582 28.4238C80.582 28.8385 80.598 29.333 80.6299 29.9072C80.6618 30.4495 80.7734 30.9759 80.9648 31.4863C81.1562 31.9967 81.4593 32.4434 81.874 32.8262C82.2887 33.1771 82.863 33.3525 83.5967 33.3525C84.0433 33.3525 84.5059 33.3206 84.9844 33.2568C85.4629 33.1611 85.9414 33.1133 86.4199 33.1133C87.2493 33.1133 87.8395 33.4004 88.1904 33.9746C88.5732 34.5488 88.7646 35.2826 88.7646 36.1758C88.7646 36.8457 88.5573 37.4359 88.1426 37.9463C87.7598 38.4248 87.2653 38.8076 86.6592 39.0947C86.0531 39.4137 85.3672 39.653 84.6016 39.8125C83.8678 39.972 83.166 40.0518 82.4961 40.0518ZM106.326 20.4326C105.88 20.4645 105.497 20.4326 105.178 20.3369C104.859 20.2093 104.54 20.0817 104.221 19.9541C103.934 19.8265 103.646 19.7148 103.359 19.6191C103.072 19.4915 102.753 19.4437 102.402 19.4756C101.764 19.5075 101.19 19.6829 100.68 20.002C100.201 20.321 99.7546 20.7197 99.3398 21.1982C98.957 21.6768 98.6221 22.2191 98.335 22.8252C98.0479 23.3994 97.8245 23.9736 97.665 24.5479C97.5693 24.9307 97.4896 25.5208 97.4258 26.3184C97.3939 27.084 97.3779 27.9134 97.3779 28.8066C97.346 29.7318 97.3301 30.609 97.3301 31.4385C97.3301 32.2679 97.2982 32.9219 97.2344 33.4004C97.2025 33.9108 97.1227 34.5169 96.9951 35.2188C96.8675 35.8887 96.6602 36.5267 96.373 37.1328C96.1178 37.7389 95.7669 38.2493 95.3203 38.6641C94.8737 39.0788 94.2995 39.2861 93.5977 39.2861C93.0553 39.2861 92.5768 39.1266 92.1621 38.8076C91.7793 38.4886 91.4443 38.0739 91.1572 37.5635C90.902 37.0212 90.6787 36.3991 90.4873 35.6973C90.3278 34.9954 90.2002 34.2777 90.1045 33.5439C90.0088 32.7783 89.929 32.0127 89.8652 31.2471C89.8333 30.4814 89.8014 29.7637 89.7695 29.0938C89.7695 28.3919 89.7695 27.7539 89.7695 27.1797C89.8014 26.6055 89.8174 26.1429 89.8174 25.792C89.7855 24.6755 89.7217 23.5589 89.626 22.4424C89.5622 21.2939 89.5303 20.1615 89.5303 19.0449C89.5303 18.3431 89.5622 17.5615 89.626 16.7002C89.6898 15.8389 89.8652 15.0413 90.1523 14.3076C90.4395 13.542 90.8542 12.904 91.3965 12.3936C91.9707 11.8831 92.7523 11.6279 93.7412 11.6279C94.2835 11.6279 94.7461 11.8034 95.1289 12.1543C95.5117 12.5052 95.8148 12.9359 96.0381 13.4463C96.2933 13.9567 96.4847 14.499 96.6123 15.0732C96.7399 15.6475 96.8197 16.1738 96.8516 16.6523C97.6172 15.4082 98.4785 14.4033 99.4355 13.6377C100.393 12.8402 101.637 12.4095 103.168 12.3457C103.934 12.3138 104.683 12.3936 105.417 12.585C106.183 12.7445 106.868 13.0316 107.475 13.4463C108.113 13.8291 108.623 14.3395 109.006 14.9775C109.421 15.6156 109.644 16.3652 109.676 17.2266C109.74 18.2474 109.437 19.029 108.767 19.5713C108.097 20.1136 107.283 20.4007 106.326 20.4326ZM119.485 39.7168C117.858 39.7168 116.439 39.2861 115.227 38.4248C114.014 37.5635 112.993 36.4629 112.164 35.123C111.335 33.7832 110.713 32.2998 110.298 30.6729C109.883 29.014 109.676 27.387 109.676 25.792C109.676 24.1012 109.883 22.3626 110.298 20.5762C110.713 18.7578 111.351 17.1149 112.212 15.6475C113.073 14.1481 114.174 12.9359 115.514 12.0107C116.854 11.0537 118.449 10.5752 120.299 10.5752C122.085 10.5752 123.601 11.0697 124.845 12.0586C126.121 13.0156 127.142 14.2279 127.907 15.6953C128.673 17.1309 129.215 18.71 129.534 20.4326C129.853 22.1553 129.965 23.7822 129.869 25.3135C129.773 27.0042 129.502 28.7109 129.056 30.4336C128.641 32.1562 128.019 33.7035 127.189 35.0752C126.36 36.4469 125.307 37.5635 124.031 38.4248C122.755 39.2861 121.24 39.7168 119.485 39.7168ZM119.964 18.0879C119.485 18.0879 119.055 18.3431 118.672 18.8535C118.321 19.3639 118.018 19.986 117.763 20.7197C117.539 21.4535 117.364 22.235 117.236 23.0645C117.109 23.862 117.045 24.5638 117.045 25.1699C117.045 25.9355 117.109 26.765 117.236 27.6582C117.396 28.5514 117.603 29.3809 117.858 30.1465C118.114 30.8802 118.417 31.5023 118.768 32.0127C119.15 32.4912 119.581 32.7305 120.06 32.7305C120.57 32.7305 121.001 32.4912 121.352 32.0127C121.734 31.5342 122.037 30.9281 122.261 30.1943C122.484 29.4606 122.644 28.6631 122.739 27.8018C122.835 26.9085 122.883 26.0791 122.883 25.3135C122.883 24.6117 122.819 23.846 122.691 23.0166C122.564 22.1553 122.372 21.3577 122.117 20.624C121.894 19.8903 121.591 19.2842 121.208 18.8057C120.857 18.3271 120.442 18.0879 119.964 18.0879ZM151.737 4.92871C151.737 5.37533 151.61 5.77409 151.354 6.125C151.131 6.47591 150.828 6.79492 150.445 7.08203C150.062 7.33724 149.648 7.5446 149.201 7.7041C148.755 7.83171 148.34 7.89551 147.957 7.89551C147.319 7.89551 146.761 7.736 146.282 7.41699C145.804 7.09798 145.564 6.60352 145.564 5.93359C145.564 5.45508 145.676 5.04036 145.899 4.68945C146.155 4.30664 146.458 4.00358 146.809 3.78027C147.16 3.52507 147.558 3.33366 148.005 3.20605C148.451 3.07845 148.882 3.01465 149.297 3.01465C149.903 3.01465 150.461 3.1582 150.972 3.44531C151.482 3.73242 151.737 4.22689 151.737 4.92871ZM152.12 21.1982C152.12 21.6449 152.12 22.1234 152.12 22.6338C152.12 23.1123 152.104 23.5749 152.072 24.0215C152.04 24.5638 152.024 25.2975 152.024 26.2227C152.024 27.1159 151.993 28.0889 151.929 29.1416C151.865 30.1943 151.753 31.263 151.594 32.3477C151.466 33.4323 151.243 34.4212 150.924 35.3145C150.605 36.2077 150.174 36.9414 149.632 37.5156C149.121 38.0579 148.467 38.3451 147.67 38.377C147.064 38.4089 146.553 38.1696 146.139 37.6592C145.724 37.1488 145.373 36.4948 145.086 35.6973C144.831 34.8678 144.639 33.9587 144.512 32.9697C144.384 31.9489 144.288 30.9759 144.225 30.0508C144.161 29.0938 144.129 28.2165 144.129 27.4189C144.129 26.6214 144.129 26.0312 144.129 25.6484C144.129 25.138 144.129 24.4202 144.129 23.4951C144.129 22.5381 144.161 21.5173 144.225 20.4326C144.288 19.348 144.4 18.2474 144.56 17.1309C144.751 16.0143 145.006 14.9935 145.325 14.0684C145.676 13.1432 146.123 12.3936 146.665 11.8193C147.207 11.2451 147.893 10.958 148.723 10.958C149.584 10.958 150.238 11.3887 150.685 12.25C151.131 13.1113 151.466 14.1162 151.689 15.2646C151.913 16.4131 152.04 17.5615 152.072 18.71C152.104 19.8265 152.12 20.6559 152.12 21.1982ZM169.107 39.6689C168.565 39.6689 168.134 39.4137 167.815 38.9033C167.496 38.4248 167.257 37.8665 167.098 37.2285C166.938 36.5905 166.826 35.9525 166.763 35.3145C166.731 34.6445 166.715 34.1341 166.715 33.7832C166.715 32.8262 166.763 31.8691 166.858 30.9121C166.986 29.9551 167.114 28.998 167.241 28.041C167.401 27.084 167.528 26.127 167.624 25.1699C167.752 24.2129 167.815 23.2559 167.815 22.2988C167.815 21.916 167.799 21.5013 167.768 21.0547C167.736 20.6081 167.656 20.1934 167.528 19.8105C167.433 19.3958 167.257 19.0609 167.002 18.8057C166.747 18.5505 166.412 18.4229 165.997 18.4229C165.71 18.4229 165.391 18.6621 165.04 19.1406C164.689 19.5872 164.354 20.1136 164.035 20.7197C163.748 21.2939 163.493 21.8841 163.27 22.4902C163.078 23.0645 162.982 23.4951 162.982 23.7822C162.982 24.484 162.982 25.2018 162.982 25.9355C163.014 26.6374 163.03 27.3551 163.03 28.0889V30.8643C162.998 31.4385 162.951 32.0286 162.887 32.6348C162.823 33.2409 162.727 33.8311 162.6 34.4053C162.504 34.9795 162.36 35.5378 162.169 36.0801C161.978 36.5905 161.722 37.0531 161.403 37.4678C161.116 37.8506 160.765 38.1696 160.351 38.4248C159.936 38.68 159.441 38.8076 158.867 38.8076C158.229 38.8076 157.703 38.6003 157.288 38.1855C156.873 37.7708 156.538 37.2445 156.283 36.6064C156.028 35.9365 155.837 35.2028 155.709 34.4053C155.613 33.5758 155.534 32.7783 155.47 32.0127C155.438 31.2152 155.422 30.4974 155.422 29.8594C155.454 29.1895 155.47 28.6631 155.47 28.2803V26.0312C155.47 24.819 155.438 23.6227 155.374 22.4424C155.342 21.262 155.326 20.0817 155.326 18.9014C155.326 18.2633 155.326 17.4499 155.326 16.4609C155.358 15.472 155.486 14.515 155.709 13.5898C155.932 12.6328 156.299 11.8193 156.81 11.1494C157.32 10.4795 158.07 10.1445 159.059 10.1445C159.505 10.1445 159.904 10.2881 160.255 10.5752C160.606 10.8623 160.909 11.2132 161.164 11.6279C161.451 12.0426 161.674 12.4893 161.834 12.9678C162.025 13.4463 162.169 13.861 162.265 14.2119C162.584 13.7653 162.951 13.3346 163.365 12.9199C163.812 12.5052 164.306 12.1383 164.849 11.8193C165.391 11.5003 165.997 11.2451 166.667 11.0537C167.337 10.8623 168.103 10.7666 168.964 10.7666C170.591 10.7666 171.851 11.1654 172.744 11.9629C173.669 12.7285 174.339 13.7015 174.754 14.8818C175.201 16.0303 175.472 17.2744 175.567 18.6143C175.663 19.9541 175.711 21.1663 175.711 22.251C175.711 22.7933 175.663 23.6068 175.567 24.6914C175.472 25.7441 175.312 26.9245 175.089 28.2324C174.897 29.5085 174.626 30.8324 174.275 32.2041C173.924 33.5439 173.51 34.7721 173.031 35.8887C172.553 37.0052 171.979 37.9144 171.309 38.6162C170.671 39.318 169.937 39.6689 169.107 39.6689ZM200.067 22.0117C200.067 23.6387 200.035 25.2656 199.972 26.8926C199.94 28.5195 199.86 30.1465 199.732 31.7734C199.637 33.1771 199.509 34.6764 199.35 36.2715C199.19 37.8665 198.935 39.4456 198.584 41.0088C198.233 42.6038 197.771 44.1191 197.196 45.5547C196.622 47.0221 195.856 48.3141 194.899 49.4307C193.974 50.5472 192.842 51.4404 191.502 52.1104C190.162 52.7803 188.567 53.1152 186.717 53.1152C185.855 53.1152 184.882 52.9717 183.798 52.6846C182.745 52.4294 181.74 52.0465 180.783 51.5361C179.858 51.0257 179.061 50.3877 178.391 49.6221C177.753 48.8883 177.434 48.027 177.434 47.0381C177.434 46.3044 177.689 45.6185 178.199 44.9805C178.742 44.3743 179.427 44.0713 180.257 44.0713C180.767 44.0713 181.246 44.151 181.692 44.3105C182.171 44.502 182.633 44.7093 183.08 44.9326C183.559 45.1559 184.005 45.3473 184.42 45.5068C184.867 45.6982 185.313 45.7939 185.76 45.7939C186.94 45.7939 187.929 45.4909 188.727 44.8848C189.524 44.3105 190.162 43.5609 190.641 42.6357C191.119 41.7425 191.47 40.7536 191.693 39.6689C191.949 38.6162 192.124 37.6113 192.22 36.6543C191.582 37.388 190.832 37.8984 189.971 38.1855C189.141 38.4408 188.264 38.5684 187.339 38.5684C185.648 38.5684 184.213 38.2812 183.032 37.707C181.852 37.1009 180.895 36.2874 180.161 35.2666C179.427 34.2139 178.885 33.0016 178.534 31.6299C178.183 30.2581 178.008 28.7747 178.008 27.1797C178.008 26.1908 178.104 25.0742 178.295 23.8301C178.518 22.5859 178.837 21.3258 179.252 20.0498C179.667 18.7738 180.177 17.5296 180.783 16.3174C181.421 15.1051 182.155 14.0365 182.984 13.1113C183.814 12.1862 184.739 11.4365 185.76 10.8623C186.812 10.2881 187.961 10.001 189.205 10.001C190.417 10.001 191.486 10.3519 192.411 11.0537C193.368 11.7555 193.926 12.7445 194.086 14.0205C194.437 13.3506 194.899 12.6966 195.474 12.0586C196.048 11.3887 196.75 11.0537 197.579 11.0537C198.026 11.0537 198.393 11.277 198.68 11.7236C198.999 12.1702 199.238 12.7604 199.397 13.4941C199.589 14.196 199.732 14.9775 199.828 15.8389C199.924 16.6683 199.988 17.4977 200.02 18.3271C200.051 19.1247 200.067 19.8584 200.067 20.5283C200.067 21.1982 200.067 21.6927 200.067 22.0117ZM192.794 25.1221C192.794 24.6436 192.714 24.0215 192.555 23.2559C192.427 22.4902 192.22 21.7565 191.933 21.0547C191.677 20.3529 191.342 19.7467 190.928 19.2363C190.513 18.7259 190.019 18.4707 189.444 18.4707C188.711 18.4707 188.057 18.7259 187.482 19.2363C186.94 19.7467 186.478 20.3688 186.095 21.1025C185.712 21.8044 185.409 22.57 185.186 23.3994C184.994 24.1969 184.898 24.8828 184.898 25.457C184.898 25.8717 184.93 26.43 184.994 27.1318C185.058 27.8337 185.186 28.5195 185.377 29.1895C185.6 29.8594 185.887 30.4336 186.238 30.9121C186.589 31.3906 187.052 31.6299 187.626 31.6299C188.487 31.6299 189.237 31.4225 189.875 31.0078C190.513 30.5931 191.039 30.0667 191.454 29.4287C191.901 28.7907 192.236 28.0889 192.459 27.3232C192.682 26.5576 192.794 25.8239 192.794 25.1221ZM220.069 20.4326C219.623 20.4645 219.24 20.4326 218.921 20.3369C218.602 20.2093 218.283 20.0817 217.964 19.9541C217.677 19.8265 217.39 19.7148 217.103 19.6191C216.815 19.4915 216.496 19.4437 216.146 19.4756C215.507 19.5075 214.933 19.6829 214.423 20.002C213.944 20.321 213.498 20.7197 213.083 21.1982C212.7 21.6768 212.365 22.2191 212.078 22.8252C211.791 23.3994 211.568 23.9736 211.408 24.5479C211.312 24.9307 211.233 25.5208 211.169 26.3184C211.137 27.084 211.121 27.9134 211.121 28.8066C211.089 29.7318 211.073 30.609 211.073 31.4385C211.073 32.2679 211.041 32.9219 210.978 33.4004C210.946 33.9108 210.866 34.5169 210.738 35.2188C210.611 35.8887 210.403 36.5267 210.116 37.1328C209.861 37.7389 209.51 38.2493 209.063 38.6641C208.617 39.0788 208.043 39.2861 207.341 39.2861C206.799 39.2861 206.32 39.1266 205.905 38.8076C205.522 38.4886 205.188 38.0739 204.9 37.5635C204.645 37.0212 204.422 36.3991 204.23 35.6973C204.071 34.9954 203.943 34.2777 203.848 33.5439C203.752 32.7783 203.672 32.0127 203.608 31.2471C203.576 30.4814 203.545 29.7637 203.513 29.0938C203.513 28.3919 203.513 27.7539 203.513 27.1797C203.545 26.6055 203.561 26.1429 203.561 25.792C203.529 24.6755 203.465 23.5589 203.369 22.4424C203.305 21.2939 203.273 20.1615 203.273 19.0449C203.273 18.3431 203.305 17.5615 203.369 16.7002C203.433 15.8389 203.608 15.0413 203.896 14.3076C204.183 13.542 204.597 12.904 205.14 12.3936C205.714 11.8831 206.495 11.6279 207.484 11.6279C208.027 11.6279 208.489 11.8034 208.872 12.1543C209.255 12.5052 209.558 12.9359 209.781 13.4463C210.036 13.9567 210.228 14.499 210.355 15.0732C210.483 15.6475 210.563 16.1738 210.595 16.6523C211.36 15.4082 212.222 14.4033 213.179 13.6377C214.136 12.8402 215.38 12.4095 216.911 12.3457C217.677 12.3138 218.426 12.3936 219.16 12.585C219.926 12.7445 220.612 13.0316 221.218 13.4463C221.856 13.8291 222.366 14.3395 222.749 14.9775C223.164 15.6156 223.387 16.3652 223.419 17.2266C223.483 18.2474 223.18 19.029 222.51 19.5713C221.84 20.1136 221.026 20.4007 220.069 20.4326ZM244.187 29.8115C244.187 30.8962 243.836 31.9648 243.134 33.0176C242.464 34.0384 241.603 34.9635 240.55 35.793C239.529 36.5905 238.428 37.2445 237.248 37.7549C236.068 38.2334 234.983 38.4727 233.994 38.4727C232.303 38.4727 230.788 38.0579 229.448 37.2285C228.14 36.3672 227.04 35.2826 226.146 33.9746C225.253 32.6667 224.567 31.2311 224.089 29.668C223.642 28.0729 223.419 26.5257 223.419 25.0264C223.419 23.4313 223.642 21.7246 224.089 19.9062C224.535 18.0879 225.205 16.4131 226.099 14.8818C227.024 13.3506 228.172 12.0745 229.544 11.0537C230.948 10.0329 232.606 9.52246 234.521 9.52246C235.605 9.52246 236.642 9.71387 237.631 10.0967C238.62 10.4476 239.481 10.958 240.215 11.6279C240.949 12.2979 241.539 13.0954 241.985 14.0205C242.432 14.9456 242.655 15.9824 242.655 17.1309C242.655 18.6302 242.336 20.0339 241.698 21.3418C241.06 22.6497 240.215 23.7822 239.162 24.7393C238.109 25.6963 236.897 26.4779 235.525 27.084C234.154 27.6582 232.75 27.9772 231.314 28.041C231.442 28.9661 231.809 29.6361 232.415 30.0508C233.053 30.4655 233.803 30.6729 234.664 30.6729C235.302 30.6729 235.924 30.5133 236.53 30.1943C237.136 29.8753 237.727 29.5244 238.301 29.1416C238.875 28.7269 239.433 28.36 239.976 28.041C240.55 27.722 241.124 27.5625 241.698 27.5625C242.336 27.5625 242.91 27.7699 243.421 28.1846C243.931 28.5993 244.187 29.1416 244.187 29.8115ZM236.435 18.0879C236.435 17.6732 236.323 17.2425 236.1 16.7959C235.876 16.3493 235.525 16.126 235.047 16.126C234.345 16.126 233.755 16.3174 233.276 16.7002C232.798 17.0511 232.399 17.5137 232.08 18.0879C231.761 18.6302 231.506 19.2204 231.314 19.8584C231.155 20.4964 231.059 21.0866 231.027 21.6289C231.474 21.5332 232 21.4056 232.606 21.2461C233.244 21.0866 233.835 20.8792 234.377 20.624C234.951 20.3369 235.43 19.986 235.812 19.5713C236.227 19.1566 236.435 18.6621 236.435 18.0879ZM266.725 6.84277C266.725 9.17155 266.629 11.4844 266.438 13.7812C266.278 16.0781 266.198 18.391 266.198 20.7197C266.198 22.6019 266.246 24.4681 266.342 26.3184C266.469 28.1686 266.533 30.0348 266.533 31.917C266.533 32.4274 266.517 33.0495 266.485 33.7832C266.453 34.485 266.342 35.1709 266.15 35.8408C265.991 36.5107 265.704 37.085 265.289 37.5635C264.906 38.042 264.348 38.2812 263.614 38.2812C262.657 38.2812 261.86 37.9303 261.222 37.2285C260.616 36.4948 260.233 35.6813 260.073 34.7881C259.467 35.9365 258.59 36.9095 257.441 37.707C256.293 38.5046 255.049 38.9033 253.709 38.9033C252.273 38.9033 251.029 38.4089 249.977 37.4199C248.956 36.431 248.094 35.2347 247.393 33.8311C246.723 32.4274 246.212 30.96 245.861 29.4287C245.542 27.8975 245.383 26.5736 245.383 25.457C245.383 24.6595 245.431 23.7503 245.526 22.7295C245.622 21.7087 245.782 20.6719 246.005 19.6191C246.26 18.5664 246.579 17.5456 246.962 16.5566C247.345 15.5358 247.823 14.6266 248.397 13.8291C249.004 13.0316 249.705 12.3936 250.503 11.915C251.332 11.4365 252.273 11.1973 253.326 11.1973C254.475 11.1973 255.575 11.5322 256.628 12.2021C257.681 12.8721 258.478 13.7015 259.021 14.6904L259.451 7.08203C259.483 6.47591 259.531 5.77409 259.595 4.97656C259.659 4.14714 259.786 3.36556 259.978 2.63184C260.201 1.89811 260.536 1.27604 260.982 0.765625C261.429 0.255208 262.083 0 262.944 0C263.869 0 264.587 0.223307 265.098 0.669922C265.608 1.11654 265.975 1.69076 266.198 2.39258C266.453 3.0625 266.597 3.79622 266.629 4.59375C266.693 5.39128 266.725 6.14095 266.725 6.84277ZM258.925 28.0889C258.925 27.3551 258.909 26.6374 258.877 25.9355C258.845 25.2337 258.845 24.516 258.877 23.7822C258.686 23.3675 258.462 22.9209 258.207 22.4424C257.952 21.932 257.633 21.4694 257.25 21.0547C256.899 20.6081 256.5 20.2412 256.054 19.9541C255.607 19.667 255.129 19.5234 254.618 19.5234C254.044 19.5234 253.581 19.6989 253.23 20.0498C252.88 20.4007 252.624 20.8314 252.465 21.3418C252.305 21.8203 252.194 22.3467 252.13 22.9209C252.098 23.4951 252.082 23.9896 252.082 24.4043C252.082 24.7871 252.114 25.3613 252.178 26.127C252.242 26.8607 252.353 27.6104 252.513 28.376C252.704 29.1416 252.959 29.8115 253.278 30.3857C253.597 30.96 254.028 31.2471 254.57 31.2471C254.985 31.2471 255.4 31.1673 255.814 31.0078C256.229 30.8164 256.612 30.5931 256.963 30.3379C257.346 30.0508 257.697 29.7477 258.016 29.4287C258.367 29.0778 258.67 28.7588 258.925 28.4717V28.0889ZM277.778 4.92871C277.778 5.37533 277.651 5.77409 277.396 6.125C277.172 6.47591 276.869 6.79492 276.486 7.08203C276.104 7.33724 275.689 7.5446 275.242 7.7041C274.796 7.83171 274.381 7.89551 273.998 7.89551C273.36 7.89551 272.802 7.736 272.323 7.41699C271.845 7.09798 271.605 6.60352 271.605 5.93359C271.605 5.45508 271.717 5.04036 271.94 4.68945C272.196 4.30664 272.499 4.00358 272.85 3.78027C273.201 3.52507 273.599 3.33366 274.046 3.20605C274.493 3.07845 274.923 3.01465 275.338 3.01465C275.944 3.01465 276.502 3.1582 277.013 3.44531C277.523 3.73242 277.778 4.22689 277.778 4.92871ZM278.161 21.1982C278.161 21.6449 278.161 22.1234 278.161 22.6338C278.161 23.1123 278.145 23.5749 278.113 24.0215C278.081 24.5638 278.065 25.2975 278.065 26.2227C278.065 27.1159 278.034 28.0889 277.97 29.1416C277.906 30.1943 277.794 31.263 277.635 32.3477C277.507 33.4323 277.284 34.4212 276.965 35.3145C276.646 36.2077 276.215 36.9414 275.673 37.5156C275.162 38.0579 274.508 38.3451 273.711 38.377C273.105 38.4089 272.594 38.1696 272.18 37.6592C271.765 37.1488 271.414 36.4948 271.127 35.6973C270.872 34.8678 270.68 33.9587 270.553 32.9697C270.425 31.9489 270.329 30.9759 270.266 30.0508C270.202 29.0938 270.17 28.2165 270.17 27.4189C270.17 26.6214 270.17 26.0312 270.17 25.6484C270.17 25.138 270.17 24.4202 270.17 23.4951C270.17 22.5381 270.202 21.5173 270.266 20.4326C270.329 19.348 270.441 18.2474 270.601 17.1309C270.792 16.0143 271.047 14.9935 271.366 14.0684C271.717 13.1432 272.164 12.3936 272.706 11.8193C273.248 11.2451 273.934 10.958 274.764 10.958C275.625 10.958 276.279 11.3887 276.726 12.25C277.172 13.1113 277.507 14.1162 277.73 15.2646C277.954 16.4131 278.081 17.5615 278.113 18.71C278.145 19.8265 278.161 20.6559 278.161 21.1982ZM301.608 29.8115C301.608 30.8962 301.257 31.9648 300.556 33.0176C299.886 34.0384 299.024 34.9635 297.972 35.793C296.951 36.5905 295.85 37.2445 294.67 37.7549C293.49 38.2334 292.405 38.4727 291.416 38.4727C289.725 38.4727 288.21 38.0579 286.87 37.2285C285.562 36.3672 284.462 35.2826 283.568 33.9746C282.675 32.6667 281.989 31.2311 281.511 29.668C281.064 28.0729 280.841 26.5257 280.841 25.0264C280.841 23.4313 281.064 21.7246 281.511 19.9062C281.957 18.0879 282.627 16.4131 283.521 14.8818C284.446 13.3506 285.594 12.0745 286.966 11.0537C288.369 10.0329 290.028 9.52246 291.942 9.52246C293.027 9.52246 294.064 9.71387 295.053 10.0967C296.042 10.4476 296.903 10.958 297.637 11.6279C298.37 12.2979 298.961 13.0954 299.407 14.0205C299.854 14.9456 300.077 15.9824 300.077 17.1309C300.077 18.6302 299.758 20.0339 299.12 21.3418C298.482 22.6497 297.637 23.7822 296.584 24.7393C295.531 25.6963 294.319 26.4779 292.947 27.084C291.576 27.6582 290.172 27.9772 288.736 28.041C288.864 28.9661 289.231 29.6361 289.837 30.0508C290.475 30.4655 291.225 30.6729 292.086 30.6729C292.724 30.6729 293.346 30.5133 293.952 30.1943C294.558 29.8753 295.148 29.5244 295.723 29.1416C296.297 28.7269 296.855 28.36 297.397 28.041C297.972 27.722 298.546 27.5625 299.12 27.5625C299.758 27.5625 300.332 27.7699 300.843 28.1846C301.353 28.5993 301.608 29.1416 301.608 29.8115ZM293.856 18.0879C293.856 17.6732 293.745 17.2425 293.521 16.7959C293.298 16.3493 292.947 16.126 292.469 16.126C291.767 16.126 291.177 16.3174 290.698 16.7002C290.22 17.0511 289.821 17.5137 289.502 18.0879C289.183 18.6302 288.928 19.2204 288.736 19.8584C288.577 20.4964 288.481 21.0866 288.449 21.6289C288.896 21.5332 289.422 21.4056 290.028 21.2461C290.666 21.0866 291.257 20.8792 291.799 20.624C292.373 20.3369 292.852 19.986 293.234 19.5713C293.649 19.1566 293.856 18.6621 293.856 18.0879ZM317.112 39.6689C316.57 39.6689 316.139 39.4137 315.82 38.9033C315.501 38.4248 315.262 37.8665 315.103 37.2285C314.943 36.5905 314.831 35.9525 314.768 35.3145C314.736 34.6445 314.72 34.1341 314.72 33.7832C314.72 32.8262 314.768 31.8691 314.863 30.9121C314.991 29.9551 315.118 28.998 315.246 28.041C315.406 27.084 315.533 26.127 315.629 25.1699C315.757 24.2129 315.82 23.2559 315.82 22.2988C315.82 21.916 315.804 21.5013 315.772 21.0547C315.741 20.6081 315.661 20.1934 315.533 19.8105C315.438 19.3958 315.262 19.0609 315.007 18.8057C314.752 18.5505 314.417 18.4229 314.002 18.4229C313.715 18.4229 313.396 18.6621 313.045 19.1406C312.694 19.5872 312.359 20.1136 312.04 20.7197C311.753 21.2939 311.498 21.8841 311.274 22.4902C311.083 23.0645 310.987 23.4951 310.987 23.7822C310.987 24.484 310.987 25.2018 310.987 25.9355C311.019 26.6374 311.035 27.3551 311.035 28.0889V30.8643C311.003 31.4385 310.955 32.0286 310.892 32.6348C310.828 33.2409 310.732 33.8311 310.604 34.4053C310.509 34.9795 310.365 35.5378 310.174 36.0801C309.982 36.5905 309.727 37.0531 309.408 37.4678C309.121 37.8506 308.77 38.1696 308.355 38.4248C307.941 38.68 307.446 38.8076 306.872 38.8076C306.234 38.8076 305.708 38.6003 305.293 38.1855C304.878 37.7708 304.543 37.2445 304.288 36.6064C304.033 35.9365 303.841 35.2028 303.714 34.4053C303.618 33.5758 303.538 32.7783 303.475 32.0127C303.443 31.2152 303.427 30.4974 303.427 29.8594C303.459 29.1895 303.475 28.6631 303.475 28.2803V26.0312C303.475 24.819 303.443 23.6227 303.379 22.4424C303.347 21.262 303.331 20.0817 303.331 18.9014C303.331 18.2633 303.331 17.4499 303.331 16.4609C303.363 15.472 303.491 14.515 303.714 13.5898C303.937 12.6328 304.304 11.8193 304.814 11.1494C305.325 10.4795 306.075 10.1445 307.063 10.1445C307.51 10.1445 307.909 10.2881 308.26 10.5752C308.611 10.8623 308.914 11.2132 309.169 11.6279C309.456 12.0426 309.679 12.4893 309.839 12.9678C310.03 13.4463 310.174 13.861 310.27 14.2119C310.589 13.7653 310.955 13.3346 311.37 12.9199C311.817 12.5052 312.311 12.1383 312.854 11.8193C313.396 11.5003 314.002 11.2451 314.672 11.0537C315.342 10.8623 316.107 10.7666 316.969 10.7666C318.596 10.7666 319.856 11.1654 320.749 11.9629C321.674 12.7285 322.344 13.7015 322.759 14.8818C323.205 16.0303 323.477 17.2744 323.572 18.6143C323.668 19.9541 323.716 21.1663 323.716 22.251C323.716 22.7933 323.668 23.6068 323.572 24.6914C323.477 25.7441 323.317 26.9245 323.094 28.2324C322.902 29.5085 322.631 30.8324 322.28 32.2041C321.929 33.5439 321.515 34.7721 321.036 35.8887C320.558 37.0052 319.983 37.9144 319.313 38.6162C318.675 39.318 317.942 39.6689 317.112 39.6689ZM337.545 40.0518C335.28 40.0518 333.509 39.7487 332.233 39.1426C330.989 38.5684 330.048 37.7389 329.41 36.6543C328.804 35.5697 328.437 34.2617 328.31 32.7305C328.182 31.1992 328.118 29.4925 328.118 27.6104C328.118 26.111 328.166 24.6117 328.262 23.1123C328.357 21.5811 328.501 19.9541 328.692 18.2314C328.246 18.2314 327.895 18.2474 327.64 18.2793C327.384 18.2793 327.177 18.2793 327.018 18.2793C325.997 18.2793 325.119 18.056 324.386 17.6094C323.62 17.1628 323.237 16.4769 323.237 15.5518C323.237 14.9775 323.461 14.4671 323.907 14.0205C324.322 13.5739 324.864 13.1911 325.534 12.8721C326.204 12.5531 326.922 12.2979 327.688 12.1064C328.485 11.915 329.235 11.7874 329.937 11.7236C329.937 10.8304 330 9.84147 330.128 8.75684C330.256 7.6722 330.479 6.66732 330.798 5.74219C331.149 4.78516 331.611 3.98763 332.186 3.34961C332.76 2.71159 333.493 2.39258 334.387 2.39258C334.897 2.39258 335.344 2.55208 335.727 2.87109C336.141 3.1582 336.476 3.54102 336.731 4.01953C336.987 4.46615 337.178 4.97656 337.306 5.55078C337.433 6.125 337.497 6.68327 337.497 7.22559C337.497 7.86361 337.449 8.51758 337.354 9.1875C337.258 9.85742 337.082 10.6868 336.827 11.6758C337.369 11.612 337.736 11.5801 337.928 11.5801C338.119 11.5482 338.295 11.5322 338.454 11.5322C338.996 11.5322 339.555 11.5801 340.129 11.6758C340.735 11.7715 341.277 11.931 341.756 12.1543C342.266 12.3776 342.681 12.6807 343 13.0635C343.319 13.4144 343.479 13.8451 343.479 14.3555C343.479 14.9297 343.239 15.4401 342.761 15.8867C342.314 16.3333 341.74 16.7161 341.038 17.0352C340.336 17.3542 339.587 17.6094 338.789 17.8008C337.992 17.9603 337.242 18.0719 336.54 18.1357C336.349 19.4437 336.205 20.6559 336.109 21.7725C336.046 22.8571 335.966 23.9577 335.87 25.0742C335.806 25.6165 335.743 26.1748 335.679 26.749C335.647 27.2913 335.631 27.8496 335.631 28.4238C335.631 28.8385 335.647 29.333 335.679 29.9072C335.711 30.4495 335.822 30.9759 336.014 31.4863C336.205 31.9967 336.508 32.4434 336.923 32.8262C337.338 33.1771 337.912 33.3525 338.646 33.3525C339.092 33.3525 339.555 33.3206 340.033 33.2568C340.512 33.1611 340.99 33.1133 341.469 33.1133C342.298 33.1133 342.888 33.4004 343.239 33.9746C343.622 34.5488 343.813 35.2826 343.813 36.1758C343.813 36.8457 343.606 37.4359 343.191 37.9463C342.809 38.4248 342.314 38.8076 341.708 39.0947C341.102 39.4137 340.416 39.653 339.65 39.8125C338.917 39.972 338.215 40.0518 337.545 40.0518ZM364.82 29.8115C364.82 30.8962 364.469 31.9648 363.768 33.0176C363.098 34.0384 362.236 34.9635 361.184 35.793C360.163 36.5905 359.062 37.2445 357.882 37.7549C356.701 38.2334 355.617 38.4727 354.628 38.4727C352.937 38.4727 351.422 38.0579 350.082 37.2285C348.774 36.3672 347.674 35.2826 346.78 33.9746C345.887 32.6667 345.201 31.2311 344.723 29.668C344.276 28.0729 344.053 26.5257 344.053 25.0264C344.053 23.4313 344.276 21.7246 344.723 19.9062C345.169 18.0879 345.839 16.4131 346.732 14.8818C347.658 13.3506 348.806 12.0745 350.178 11.0537C351.581 10.0329 353.24 9.52246 355.154 9.52246C356.239 9.52246 357.276 9.71387 358.265 10.0967C359.254 10.4476 360.115 10.958 360.849 11.6279C361.582 12.2979 362.173 13.0954 362.619 14.0205C363.066 14.9456 363.289 15.9824 363.289 17.1309C363.289 18.6302 362.97 20.0339 362.332 21.3418C361.694 22.6497 360.849 23.7822 359.796 24.7393C358.743 25.6963 357.531 26.4779 356.159 27.084C354.787 27.6582 353.384 27.9772 351.948 28.041C352.076 28.9661 352.443 29.6361 353.049 30.0508C353.687 30.4655 354.437 30.6729 355.298 30.6729C355.936 30.6729 356.558 30.5133 357.164 30.1943C357.77 29.8753 358.36 29.5244 358.935 29.1416C359.509 28.7269 360.067 28.36 360.609 28.041C361.184 27.722 361.758 27.5625 362.332 27.5625C362.97 27.5625 363.544 27.7699 364.055 28.1846C364.565 28.5993 364.82 29.1416 364.82 29.8115ZM357.068 18.0879C357.068 17.6732 356.957 17.2425 356.733 16.7959C356.51 16.3493 356.159 16.126 355.681 16.126C354.979 16.126 354.389 16.3174 353.91 16.7002C353.432 17.0511 353.033 17.5137 352.714 18.0879C352.395 18.6302 352.14 19.2204 351.948 19.8584C351.789 20.4964 351.693 21.0866 351.661 21.6289C352.108 21.5332 352.634 21.4056 353.24 21.2461C353.878 21.0866 354.468 20.8792 355.011 20.624C355.585 20.3369 356.063 19.986 356.446 19.5713C356.861 19.1566 357.068 18.6621 357.068 18.0879ZM380.755 12.0107C380.755 12.9359 380.436 13.6217 379.798 14.0684C379.192 14.515 378.506 14.9456 377.74 15.3604C376.975 15.7432 376.273 16.2057 375.635 16.748C375.029 17.2904 374.726 18.1038 374.726 19.1885C374.726 19.7627 374.853 20.2572 375.108 20.6719C375.396 21.0866 375.73 21.4694 376.113 21.8203C376.528 22.1393 376.975 22.4743 377.453 22.8252C377.932 23.1761 378.362 23.5749 378.745 24.0215C379.16 24.4681 379.495 25.0104 379.75 25.6484C380.037 26.2865 380.181 27.068 380.181 27.9932C380.181 29.333 379.83 30.6569 379.128 31.9648C378.458 33.2409 377.581 34.3893 376.496 35.4102C375.443 36.3991 374.247 37.1966 372.907 37.8027C371.567 38.4089 370.243 38.7119 368.936 38.7119C368.393 38.7119 367.851 38.6641 367.309 38.5684C366.766 38.5046 366.272 38.361 365.825 38.1377C365.41 37.9144 365.06 37.6113 364.772 37.2285C364.485 36.8138 364.342 36.2874 364.342 35.6494C364.342 34.7562 364.517 34.0703 364.868 33.5918C365.219 33.0814 365.666 32.6826 366.208 32.3955C366.75 32.1084 367.325 31.8851 367.931 31.7256C368.569 31.5661 369.159 31.3747 369.701 31.1514C370.243 30.8962 370.69 30.5771 371.041 30.1943C371.392 29.8115 371.567 29.2692 371.567 28.5674C371.567 27.8975 371.296 27.2116 370.754 26.5098C370.243 25.776 369.669 25.0104 369.031 24.2129C368.393 23.3835 367.803 22.5062 367.261 21.5811C366.75 20.6559 366.495 19.6351 366.495 18.5186C366.495 17.1468 366.766 15.8867 367.309 14.7383C367.883 13.5579 368.632 12.5371 369.558 11.6758C370.515 10.8145 371.599 10.1445 372.812 9.66602C374.024 9.1556 375.3 8.90039 376.64 8.90039C377.15 8.90039 377.645 8.94824 378.123 9.04395C378.633 9.13965 379.08 9.3151 379.463 9.57031C379.846 9.79362 380.149 10.1126 380.372 10.5273C380.627 10.9102 380.755 11.4046 380.755 12.0107ZM389.56 35.793C389.56 36.3034 389.416 36.9574 389.129 37.7549C388.874 38.5524 388.539 39.334 388.124 40.0996C387.741 40.8652 387.295 41.5192 386.784 42.0615C386.274 42.6038 385.779 42.875 385.301 42.875C384.663 42.875 384.344 42.556 384.344 41.918C384.344 41.5352 384.424 41.1683 384.583 40.8174C384.743 40.4665 384.918 40.1156 385.109 39.7646C385.301 39.4456 385.476 39.1107 385.636 38.7598C385.795 38.4408 385.875 38.1217 385.875 37.8027C385.396 38.1217 384.886 38.2812 384.344 38.2812C383.61 38.2812 382.988 37.9941 382.478 37.4199C381.967 36.8457 381.712 36.2077 381.712 35.5059C381.712 34.485 382.047 33.6715 382.717 33.0654C383.387 32.4274 384.232 32.1084 385.253 32.1084C386.401 32.1084 387.406 32.4115 388.268 33.0176C389.129 33.6237 389.56 34.5488 389.56 35.793ZM420.759 19.9541C420.759 20.1136 420.743 20.2891 420.711 20.4805C420.679 20.64 420.631 20.7995 420.567 20.959C420.28 21.6927 419.834 22.3148 419.228 22.8252C418.621 23.3037 417.904 23.543 417.074 23.543C415.83 23.543 414.985 22.9209 414.538 21.6768C414.474 21.5173 414.442 21.3418 414.442 21.1504C414.442 20.9271 414.426 20.7038 414.395 20.4805V19.0928C414.331 18.6462 414.219 18.2952 414.06 18.04C413.9 17.7848 413.629 17.6572 413.246 17.6572C412.704 17.6572 412.177 18.0081 411.667 18.71C411.188 19.3799 410.758 20.1934 410.375 21.1504C410.024 22.0755 409.737 23.0326 409.514 24.0215C409.29 25.0104 409.179 25.8079 409.179 26.4141C409.179 26.8926 409.211 27.4827 409.274 28.1846C409.338 28.8545 409.466 29.5085 409.657 30.1465C409.849 30.7845 410.104 31.3428 410.423 31.8213C410.774 32.2679 411.22 32.4912 411.763 32.4912C412.305 32.4912 412.799 32.3317 413.246 32.0127C413.725 31.6618 414.187 31.263 414.634 30.8164C415.049 30.4336 415.495 30.0348 415.974 29.6201C416.484 29.2054 417.058 28.998 417.696 28.998C418.494 28.998 419.116 29.2852 419.562 29.8594C420.041 30.4336 420.28 31.0876 420.28 31.8213C420.28 32.9059 419.993 33.9268 419.419 34.8838C418.845 35.8089 418.127 36.6224 417.266 37.3242C416.404 37.9941 415.447 38.5205 414.395 38.9033C413.342 39.318 412.337 39.5254 411.38 39.5254C409.657 39.5254 408.19 39.0947 406.978 38.2334C405.797 37.3721 404.84 36.2874 404.106 34.9795C403.373 33.6396 402.846 32.1882 402.527 30.625C402.208 29.0618 402.049 27.5785 402.049 26.1748C402.049 24.5479 402.272 22.7933 402.719 20.9111C403.165 18.9971 403.851 17.2266 404.776 15.5996C405.701 13.9727 406.882 12.6169 408.317 11.5322C409.785 10.4476 411.523 9.90527 413.533 9.90527C414.777 9.90527 415.846 10.1764 416.739 10.7188C417.664 11.2611 418.414 11.9788 418.988 12.8721C419.594 13.7334 420.041 14.7064 420.328 15.791C420.647 16.8757 420.807 17.9443 420.807 18.9971C420.807 19.1566 420.807 19.3161 420.807 19.4756C420.807 19.6351 420.791 19.7946 420.759 19.9541ZM443.488 29.8115C443.488 30.8962 443.137 31.9648 442.436 33.0176C441.766 34.0384 440.904 34.9635 439.852 35.793C438.831 36.5905 437.73 37.2445 436.55 37.7549C435.369 38.2334 434.285 38.4727 433.296 38.4727C431.605 38.4727 430.09 38.0579 428.75 37.2285C427.442 36.3672 426.341 35.2826 425.448 33.9746C424.555 32.6667 423.869 31.2311 423.391 29.668C422.944 28.0729 422.721 26.5257 422.721 25.0264C422.721 23.4313 422.944 21.7246 423.391 19.9062C423.837 18.0879 424.507 16.4131 425.4 14.8818C426.326 13.3506 427.474 12.0745 428.846 11.0537C430.249 10.0329 431.908 9.52246 433.822 9.52246C434.907 9.52246 435.944 9.71387 436.933 10.0967C437.922 10.4476 438.783 10.958 439.517 11.6279C440.25 12.2979 440.84 13.0954 441.287 14.0205C441.734 14.9456 441.957 15.9824 441.957 17.1309C441.957 18.6302 441.638 20.0339 441 21.3418C440.362 22.6497 439.517 23.7822 438.464 24.7393C437.411 25.6963 436.199 26.4779 434.827 27.084C433.455 27.6582 432.052 27.9772 430.616 28.041C430.744 28.9661 431.111 29.6361 431.717 30.0508C432.355 30.4655 433.104 30.6729 433.966 30.6729C434.604 30.6729 435.226 30.5133 435.832 30.1943C436.438 29.8753 437.028 29.5244 437.603 29.1416C438.177 28.7269 438.735 28.36 439.277 28.041C439.852 27.722 440.426 27.5625 441 27.5625C441.638 27.5625 442.212 27.7699 442.723 28.1846C443.233 28.5993 443.488 29.1416 443.488 29.8115ZM435.736 18.0879C435.736 17.6732 435.625 17.2425 435.401 16.7959C435.178 16.3493 434.827 16.126 434.349 16.126C433.647 16.126 433.057 16.3174 432.578 16.7002C432.1 17.0511 431.701 17.5137 431.382 18.0879C431.063 18.6302 430.808 19.2204 430.616 19.8584C430.457 20.4964 430.361 21.0866 430.329 21.6289C430.776 21.5332 431.302 21.4056 431.908 21.2461C432.546 21.0866 433.136 20.8792 433.679 20.624C434.253 20.3369 434.731 19.986 435.114 19.5713C435.529 19.1566 435.736 18.6621 435.736 18.0879ZM462.007 20.4326C461.56 20.4645 461.177 20.4326 460.858 20.3369C460.539 20.2093 460.22 20.0817 459.901 19.9541C459.614 19.8265 459.327 19.7148 459.04 19.6191C458.753 19.4915 458.434 19.4437 458.083 19.4756C457.445 19.5075 456.871 19.6829 456.36 20.002C455.882 20.321 455.435 20.7197 455.021 21.1982C454.638 21.6768 454.303 22.2191 454.016 22.8252C453.729 23.3994 453.505 23.9736 453.346 24.5479C453.25 24.9307 453.17 25.5208 453.106 26.3184C453.075 27.084 453.059 27.9134 453.059 28.8066C453.027 29.7318 453.011 30.609 453.011 31.4385C453.011 32.2679 452.979 32.9219 452.915 33.4004C452.883 33.9108 452.803 34.5169 452.676 35.2188C452.548 35.8887 452.341 36.5267 452.054 37.1328C451.799 37.7389 451.448 38.2493 451.001 38.6641C450.554 39.0788 449.98 39.2861 449.278 39.2861C448.736 39.2861 448.257 39.1266 447.843 38.8076C447.46 38.4886 447.125 38.0739 446.838 37.5635C446.583 37.0212 446.359 36.3991 446.168 35.6973C446.008 34.9954 445.881 34.2777 445.785 33.5439C445.689 32.7783 445.61 32.0127 445.546 31.2471C445.514 30.4814 445.482 29.7637 445.45 29.0938C445.45 28.3919 445.45 27.7539 445.45 27.1797C445.482 26.6055 445.498 26.1429 445.498 25.792C445.466 24.6755 445.402 23.5589 445.307 22.4424C445.243 21.2939 445.211 20.1615 445.211 19.0449C445.211 18.3431 445.243 17.5615 445.307 16.7002C445.37 15.8389 445.546 15.0413 445.833 14.3076C446.12 13.542 446.535 12.904 447.077 12.3936C447.651 11.8831 448.433 11.6279 449.422 11.6279C449.964 11.6279 450.427 11.8034 450.81 12.1543C451.192 12.5052 451.495 12.9359 451.719 13.4463C451.974 13.9567 452.165 14.499 452.293 15.0732C452.421 15.6475 452.5 16.1738 452.532 16.6523C453.298 15.4082 454.159 14.4033 455.116 13.6377C456.073 12.8402 457.317 12.4095 458.849 12.3457C459.614 12.3138 460.364 12.3936 461.098 12.585C461.863 12.7445 462.549 13.0316 463.155 13.4463C463.793 13.8291 464.304 14.3395 464.687 14.9775C465.101 15.6156 465.325 16.3652 465.356 17.2266C465.42 18.2474 465.117 19.029 464.447 19.5713C463.777 20.1136 462.964 20.4007 462.007 20.4326ZM475.166 39.7168C473.539 39.7168 472.119 39.2861 470.907 38.4248C469.695 37.5635 468.674 36.4629 467.845 35.123C467.015 33.7832 466.393 32.2998 465.979 30.6729C465.564 29.014 465.356 27.387 465.356 25.792C465.356 24.1012 465.564 22.3626 465.979 20.5762C466.393 18.7578 467.031 17.1149 467.893 15.6475C468.754 14.1481 469.854 12.9359 471.194 12.0107C472.534 11.0537 474.129 10.5752 475.979 10.5752C477.766 10.5752 479.281 11.0697 480.525 12.0586C481.801 13.0156 482.822 14.2279 483.588 15.6953C484.354 17.1309 484.896 18.71 485.215 20.4326C485.534 22.1553 485.646 23.7822 485.55 25.3135C485.454 27.0042 485.183 28.7109 484.736 30.4336C484.322 32.1562 483.7 33.7035 482.87 35.0752C482.041 36.4469 480.988 37.5635 479.712 38.4248C478.436 39.2861 476.921 39.7168 475.166 39.7168ZM475.645 18.0879C475.166 18.0879 474.735 18.3431 474.353 18.8535C474.002 19.3639 473.699 19.986 473.443 20.7197C473.22 21.4535 473.045 22.235 472.917 23.0645C472.789 23.862 472.726 24.5638 472.726 25.1699C472.726 25.9355 472.789 26.765 472.917 27.6582C473.076 28.5514 473.284 29.3809 473.539 30.1465C473.794 30.8802 474.097 31.5023 474.448 32.0127C474.831 32.4912 475.262 32.7305 475.74 32.7305C476.251 32.7305 476.681 32.4912 477.032 32.0127C477.415 31.5342 477.718 30.9281 477.941 30.1943C478.165 29.4606 478.324 28.6631 478.42 27.8018C478.516 26.9085 478.563 26.0791 478.563 25.3135C478.563 24.6117 478.5 23.846 478.372 23.0166C478.244 22.1553 478.053 21.3577 477.798 20.624C477.575 19.8903 477.271 19.2842 476.889 18.8057C476.538 18.3271 476.123 18.0879 475.645 18.0879ZM516.127 20.4326C515.68 20.4645 515.298 20.4326 514.979 20.3369C514.66 20.2093 514.34 20.0817 514.021 19.9541C513.734 19.8265 513.447 19.7148 513.16 19.6191C512.873 19.4915 512.554 19.4437 512.203 19.4756C511.565 19.5075 510.991 19.6829 510.48 20.002C510.002 20.321 509.555 20.7197 509.141 21.1982C508.758 21.6768 508.423 22.2191 508.136 22.8252C507.849 23.3994 507.625 23.9736 507.466 24.5479C507.37 24.9307 507.29 25.5208 507.227 26.3184C507.195 27.084 507.179 27.9134 507.179 28.8066C507.147 29.7318 507.131 30.609 507.131 31.4385C507.131 32.2679 507.099 32.9219 507.035 33.4004C507.003 33.9108 506.924 34.5169 506.796 35.2188C506.668 35.8887 506.461 36.5267 506.174 37.1328C505.919 37.7389 505.568 38.2493 505.121 38.6641C504.674 39.0788 504.1 39.2861 503.398 39.2861C502.856 39.2861 502.378 39.1266 501.963 38.8076C501.58 38.4886 501.245 38.0739 500.958 37.5635C500.703 37.0212 500.479 36.3991 500.288 35.6973C500.129 34.9954 500.001 34.2777 499.905 33.5439C499.81 32.7783 499.73 32.0127 499.666 31.2471C499.634 30.4814 499.602 29.7637 499.57 29.0938C499.57 28.3919 499.57 27.7539 499.57 27.1797C499.602 26.6055 499.618 26.1429 499.618 25.792C499.586 24.6755 499.522 23.5589 499.427 22.4424C499.363 21.2939 499.331 20.1615 499.331 19.0449C499.331 18.3431 499.363 17.5615 499.427 16.7002C499.491 15.8389 499.666 15.0413 499.953 14.3076C500.24 13.542 500.655 12.904 501.197 12.3936C501.771 11.8831 502.553 11.6279 503.542 11.6279C504.084 11.6279 504.547 11.8034 504.93 12.1543C505.312 12.5052 505.616 12.9359 505.839 13.4463C506.094 13.9567 506.285 14.499 506.413 15.0732C506.541 15.6475 506.62 16.1738 506.652 16.6523C507.418 15.4082 508.279 14.4033 509.236 13.6377C510.193 12.8402 511.438 12.4095 512.969 12.3457C513.734 12.3138 514.484 12.3936 515.218 12.585C515.983 12.7445 516.669 13.0316 517.275 13.4463C517.913 13.8291 518.424 14.3395 518.807 14.9775C519.221 15.6156 519.445 16.3652 519.477 17.2266C519.54 18.2474 519.237 19.029 518.567 19.5713C517.897 20.1136 517.084 20.4007 516.127 20.4326ZM540.244 29.8115C540.244 30.8962 539.893 31.9648 539.191 33.0176C538.521 34.0384 537.66 34.9635 536.607 35.793C535.587 36.5905 534.486 37.2445 533.306 37.7549C532.125 38.2334 531.041 38.4727 530.052 38.4727C528.361 38.4727 526.846 38.0579 525.506 37.2285C524.198 36.3672 523.097 35.2826 522.204 33.9746C521.311 32.6667 520.625 31.2311 520.146 29.668C519.7 28.0729 519.477 26.5257 519.477 25.0264C519.477 23.4313 519.7 21.7246 520.146 19.9062C520.593 18.0879 521.263 16.4131 522.156 14.8818C523.081 13.3506 524.23 12.0745 525.602 11.0537C527.005 10.0329 528.664 9.52246 530.578 9.52246C531.663 9.52246 532.7 9.71387 533.688 10.0967C534.677 10.4476 535.539 10.958 536.272 11.6279C537.006 12.2979 537.596 13.0954 538.043 14.0205C538.49 14.9456 538.713 15.9824 538.713 17.1309C538.713 18.6302 538.394 20.0339 537.756 21.3418C537.118 22.6497 536.272 23.7822 535.22 24.7393C534.167 25.6963 532.955 26.4779 531.583 27.084C530.211 27.6582 528.808 27.9772 527.372 28.041C527.5 28.9661 527.867 29.6361 528.473 30.0508C529.111 30.4655 529.86 30.6729 530.722 30.6729C531.36 30.6729 531.982 30.5133 532.588 30.1943C533.194 29.8753 533.784 29.5244 534.358 29.1416C534.933 28.7269 535.491 28.36 536.033 28.041C536.607 27.722 537.182 27.5625 537.756 27.5625C538.394 27.5625 538.968 27.7699 539.479 28.1846C539.989 28.5993 540.244 29.1416 540.244 29.8115ZM532.492 18.0879C532.492 17.6732 532.381 17.2425 532.157 16.7959C531.934 16.3493 531.583 16.126 531.104 16.126C530.403 16.126 529.812 16.3174 529.334 16.7002C528.855 17.0511 528.457 17.5137 528.138 18.0879C527.819 18.6302 527.563 19.2204 527.372 19.8584C527.213 20.4964 527.117 21.0866 527.085 21.6289C527.532 21.5332 528.058 21.4056 528.664 21.2461C529.302 21.0866 529.892 20.8792 530.435 20.624C531.009 20.3369 531.487 19.986 531.87 19.5713C532.285 19.1566 532.492 18.6621 532.492 18.0879ZM551.106 9.33105C551.106 11.0537 551.027 12.7923 550.867 14.5469C550.74 16.2695 550.676 18.0081 550.676 19.7627C550.676 22.0277 550.74 24.2926 550.867 26.5576C551.027 28.8226 551.106 31.1035 551.106 33.4004C551.106 33.9746 551.075 34.6286 551.011 35.3623C550.947 36.0641 550.787 36.7181 550.532 37.3242C550.309 37.9303 549.958 38.4408 549.479 38.8555C549.001 39.2702 548.363 39.4775 547.565 39.4775C546.8 39.4775 546.13 39.0947 545.556 38.3291C545.013 37.5954 544.551 36.6543 544.168 35.5059C543.817 34.3255 543.514 33.0176 543.259 31.582C543.035 30.1465 542.86 28.7588 542.732 27.4189C542.637 26.0472 542.557 24.8031 542.493 23.6865C542.461 22.5381 542.445 21.6927 542.445 21.1504C542.445 20.5443 542.461 19.667 542.493 18.5186C542.557 17.3701 542.669 16.126 542.828 14.7861C542.988 13.4463 543.195 12.0905 543.45 10.7188C543.737 9.3151 544.104 8.05501 544.551 6.93848C544.997 5.79004 545.524 4.86491 546.13 4.16309C546.768 3.42936 547.518 3.0625 548.379 3.0625C549.081 3.0625 549.607 3.30176 549.958 3.78027C550.341 4.22689 550.612 4.78516 550.771 5.45508C550.931 6.0931 551.027 6.77897 551.059 7.5127C551.09 8.21452 551.106 8.82064 551.106 9.33105ZM563.691 9.33105C563.691 11.0537 563.612 12.7923 563.452 14.5469C563.325 16.2695 563.261 18.0081 563.261 19.7627C563.261 22.0277 563.325 24.2926 563.452 26.5576C563.612 28.8226 563.691 31.1035 563.691 33.4004C563.691 33.9746 563.66 34.6286 563.596 35.3623C563.532 36.0641 563.372 36.7181 563.117 37.3242C562.894 37.9303 562.543 38.4408 562.064 38.8555C561.586 39.2702 560.948 39.4775 560.15 39.4775C559.385 39.4775 558.715 39.0947 558.141 38.3291C557.598 37.5954 557.136 36.6543 556.753 35.5059C556.402 34.3255 556.099 33.0176 555.844 31.582C555.62 30.1465 555.445 28.7588 555.317 27.4189C555.222 26.0472 555.142 24.8031 555.078 23.6865C555.046 22.5381 555.03 21.6927 555.03 21.1504C555.03 20.5443 555.046 19.667 555.078 18.5186C555.142 17.3701 555.254 16.126 555.413 14.7861C555.573 13.4463 555.78 12.0905 556.035 10.7188C556.322 9.3151 556.689 8.05501 557.136 6.93848C557.582 5.79004 558.109 4.86491 558.715 4.16309C559.353 3.42936 560.103 3.0625 560.964 3.0625C561.666 3.0625 562.192 3.30176 562.543 3.78027C562.926 4.22689 563.197 4.78516 563.356 5.45508C563.516 6.0931 563.612 6.77897 563.644 7.5127C563.675 8.21452 563.691 8.82064 563.691 9.33105ZM587.378 29.8115C587.378 30.8962 587.027 31.9648 586.325 33.0176C585.655 34.0384 584.794 34.9635 583.741 35.793C582.72 36.5905 581.62 37.2445 580.439 37.7549C579.259 38.2334 578.174 38.4727 577.186 38.4727C575.495 38.4727 573.979 38.0579 572.64 37.2285C571.332 36.3672 570.231 35.2826 569.338 33.9746C568.445 32.6667 567.759 31.2311 567.28 29.668C566.834 28.0729 566.61 26.5257 566.61 25.0264C566.61 23.4313 566.834 21.7246 567.28 19.9062C567.727 18.0879 568.397 16.4131 569.29 14.8818C570.215 13.3506 571.364 12.0745 572.735 11.0537C574.139 10.0329 575.798 9.52246 577.712 9.52246C578.797 9.52246 579.833 9.71387 580.822 10.0967C581.811 10.4476 582.673 10.958 583.406 11.6279C584.14 12.2979 584.73 13.0954 585.177 14.0205C585.623 14.9456 585.847 15.9824 585.847 17.1309C585.847 18.6302 585.528 20.0339 584.89 21.3418C584.252 22.6497 583.406 23.7822 582.354 24.7393C581.301 25.6963 580.089 26.4779 578.717 27.084C577.345 27.6582 575.941 27.9772 574.506 28.041C574.633 28.9661 575 29.6361 575.606 30.0508C576.244 30.4655 576.994 30.6729 577.855 30.6729C578.493 30.6729 579.116 30.5133 579.722 30.1943C580.328 29.8753 580.918 29.5244 581.492 29.1416C582.066 28.7269 582.625 28.36 583.167 28.041C583.741 27.722 584.315 27.5625 584.89 27.5625C585.528 27.5625 586.102 27.7699 586.612 28.1846C587.123 28.5993 587.378 29.1416 587.378 29.8115ZM579.626 18.0879C579.626 17.6732 579.514 17.2425 579.291 16.7959C579.068 16.3493 578.717 16.126 578.238 16.126C577.536 16.126 576.946 16.3174 576.468 16.7002C575.989 17.0511 575.59 17.5137 575.271 18.0879C574.952 18.6302 574.697 19.2204 574.506 19.8584C574.346 20.4964 574.251 21.0866 574.219 21.6289C574.665 21.5332 575.192 21.4056 575.798 21.2461C576.436 21.0866 577.026 20.8792 577.568 20.624C578.143 20.3369 578.621 19.986 579.004 19.5713C579.419 19.1566 579.626 18.6621 579.626 18.0879ZM602.882 39.6689C602.34 39.6689 601.909 39.4137 601.59 38.9033C601.271 38.4248 601.032 37.8665 600.872 37.2285C600.713 36.5905 600.601 35.9525 600.537 35.3145C600.505 34.6445 600.489 34.1341 600.489 33.7832C600.489 32.8262 600.537 31.8691 600.633 30.9121C600.76 29.9551 600.888 28.998 601.016 28.041C601.175 27.084 601.303 26.127 601.398 25.1699C601.526 24.2129 601.59 23.2559 601.59 22.2988C601.59 21.916 601.574 21.5013 601.542 21.0547C601.51 20.6081 601.43 20.1934 601.303 19.8105C601.207 19.3958 601.032 19.0609 600.776 18.8057C600.521 18.5505 600.186 18.4229 599.771 18.4229C599.484 18.4229 599.165 18.6621 598.814 19.1406C598.464 19.5872 598.129 20.1136 597.81 20.7197C597.522 21.2939 597.267 21.8841 597.044 22.4902C596.853 23.0645 596.757 23.4951 596.757 23.7822C596.757 24.484 596.757 25.2018 596.757 25.9355C596.789 26.6374 596.805 27.3551 596.805 28.0889V30.8643C596.773 31.4385 596.725 32.0286 596.661 32.6348C596.597 33.2409 596.502 33.8311 596.374 34.4053C596.278 34.9795 596.135 35.5378 595.943 36.0801C595.752 36.5905 595.497 37.0531 595.178 37.4678C594.891 37.8506 594.54 38.1696 594.125 38.4248C593.71 38.68 593.216 38.8076 592.642 38.8076C592.004 38.8076 591.477 38.6003 591.062 38.1855C590.648 37.7708 590.313 37.2445 590.058 36.6064C589.802 35.9365 589.611 35.2028 589.483 34.4053C589.388 33.5758 589.308 32.7783 589.244 32.0127C589.212 31.2152 589.196 30.4974 589.196 29.8594C589.228 29.1895 589.244 28.6631 589.244 28.2803V26.0312C589.244 24.819 589.212 23.6227 589.148 22.4424C589.117 21.262 589.101 20.0817 589.101 18.9014C589.101 18.2633 589.101 17.4499 589.101 16.4609C589.132 15.472 589.26 14.515 589.483 13.5898C589.707 12.6328 590.074 11.8193 590.584 11.1494C591.094 10.4795 591.844 10.1445 592.833 10.1445C593.28 10.1445 593.678 10.2881 594.029 10.5752C594.38 10.8623 594.683 11.2132 594.938 11.6279C595.226 12.0426 595.449 12.4893 595.608 12.9678C595.8 13.4463 595.943 13.861 596.039 14.2119C596.358 13.7653 596.725 13.3346 597.14 12.9199C597.586 12.5052 598.081 12.1383 598.623 11.8193C599.165 11.5003 599.771 11.2451 600.441 11.0537C601.111 10.8623 601.877 10.7666 602.738 10.7666C604.365 10.7666 605.625 11.1654 606.519 11.9629C607.444 12.7285 608.114 13.7015 608.528 14.8818C608.975 16.0303 609.246 17.2744 609.342 18.6143C609.438 19.9541 609.485 21.1663 609.485 22.251C609.485 22.7933 609.438 23.6068 609.342 24.6914C609.246 25.7441 609.087 26.9245 608.863 28.2324C608.672 29.5085 608.401 30.8324 608.05 32.2041C607.699 33.5439 607.284 34.7721 606.806 35.8887C606.327 37.0052 605.753 37.9144 605.083 38.6162C604.445 39.318 603.711 39.6689 602.882 39.6689ZM621.257 39.7168C619.63 39.7168 618.21 39.2861 616.998 38.4248C615.786 37.5635 614.765 36.4629 613.936 35.123C613.106 33.7832 612.484 32.2998 612.069 30.6729C611.655 29.014 611.447 27.387 611.447 25.792C611.447 24.1012 611.655 22.3626 612.069 20.5762C612.484 18.7578 613.122 17.1149 613.983 15.6475C614.845 14.1481 615.945 12.9359 617.285 12.0107C618.625 11.0537 620.22 10.5752 622.07 10.5752C623.857 10.5752 625.372 11.0697 626.616 12.0586C627.892 13.0156 628.913 14.2279 629.679 15.6953C630.444 17.1309 630.987 18.71 631.306 20.4326C631.625 22.1553 631.736 23.7822 631.641 25.3135C631.545 27.0042 631.274 28.7109 630.827 30.4336C630.412 32.1562 629.79 33.7035 628.961 35.0752C628.132 36.4469 627.079 37.5635 625.803 38.4248C624.527 39.2861 623.011 39.7168 621.257 39.7168ZM621.735 18.0879C621.257 18.0879 620.826 18.3431 620.443 18.8535C620.092 19.3639 619.789 19.986 619.534 20.7197C619.311 21.4535 619.135 22.235 619.008 23.0645C618.88 23.862 618.816 24.5638 618.816 25.1699C618.816 25.9355 618.88 26.765 619.008 27.6582C619.167 28.5514 619.375 29.3809 619.63 30.1465C619.885 30.8802 620.188 31.5023 620.539 32.0127C620.922 32.4912 621.353 32.7305 621.831 32.7305C622.341 32.7305 622.772 32.4912 623.123 32.0127C623.506 31.5342 623.809 30.9281 624.032 30.1943C624.256 29.4606 624.415 28.6631 624.511 27.8018C624.606 26.9085 624.654 26.0791 624.654 25.3135C624.654 24.6117 624.59 23.846 624.463 23.0166C624.335 22.1553 624.144 21.3577 623.889 20.624C623.665 19.8903 623.362 19.2842 622.979 18.8057C622.629 18.3271 622.214 18.0879 621.735 18.0879ZM217.94 53.9287C217.94 54.3753 217.812 54.7741 217.557 55.125C217.334 55.4759 217.031 55.7949 216.648 56.082C216.265 56.3372 215.85 56.5446 215.404 56.7041C214.957 56.8317 214.542 56.8955 214.16 56.8955C213.522 56.8955 212.963 56.736 212.485 56.417C212.006 56.098 211.767 55.6035 211.767 54.9336C211.767 54.4551 211.879 54.0404 212.102 53.6895C212.357 53.3066 212.66 53.0036 213.011 52.7803C213.362 52.5251 213.761 52.3337 214.208 52.2061C214.654 52.0785 215.085 52.0146 215.5 52.0146C216.106 52.0146 216.664 52.1582 217.174 52.4453C217.685 52.7324 217.94 53.2269 217.94 53.9287ZM218.323 70.1982C218.323 70.6449 218.323 71.1234 218.323 71.6338C218.323 72.1123 218.307 72.5749 218.275 73.0215C218.243 73.5638 218.227 74.2975 218.227 75.2227C218.227 76.1159 218.195 77.0889 218.131 78.1416C218.068 79.1943 217.956 80.263 217.796 81.3477C217.669 82.4323 217.445 83.4212 217.126 84.3145C216.807 85.2077 216.377 85.9414 215.834 86.5156C215.324 87.0579 214.67 87.3451 213.873 87.377C213.266 87.4089 212.756 87.1696 212.341 86.6592C211.927 86.1488 211.576 85.4948 211.289 84.6973C211.033 83.8678 210.842 82.9587 210.714 81.9697C210.587 80.9489 210.491 79.9759 210.427 79.0508C210.363 78.0938 210.332 77.2165 210.332 76.4189C210.332 75.6214 210.332 75.0312 210.332 74.6484C210.332 74.138 210.332 73.4202 210.332 72.4951C210.332 71.5381 210.363 70.5173 210.427 69.4326C210.491 68.348 210.603 67.2474 210.762 66.1309C210.954 65.0143 211.209 63.9935 211.528 63.0684C211.879 62.1432 212.325 61.3936 212.868 60.8193C213.41 60.2451 214.096 59.958 214.925 59.958C215.787 59.958 216.441 60.3887 216.887 61.25C217.334 62.1113 217.669 63.1162 217.892 64.2646C218.115 65.4131 218.243 66.5615 218.275 67.71C218.307 68.8265 218.323 69.6559 218.323 70.1982ZM235.31 88.6689C234.768 88.6689 234.337 88.4137 234.018 87.9033C233.699 87.4248 233.46 86.8665 233.3 86.2285C233.141 85.5905 233.029 84.9525 232.965 84.3145C232.933 83.6445 232.917 83.1341 232.917 82.7832C232.917 81.8262 232.965 80.8691 233.061 79.9121C233.189 78.9551 233.316 77.998 233.444 77.041C233.603 76.084 233.731 75.127 233.827 74.1699C233.954 73.2129 234.018 72.2559 234.018 71.2988C234.018 70.916 234.002 70.5013 233.97 70.0547C233.938 69.6081 233.859 69.1934 233.731 68.8105C233.635 68.3958 233.46 68.0609 233.205 67.8057C232.949 67.5505 232.614 67.4229 232.2 67.4229C231.913 67.4229 231.594 67.6621 231.243 68.1406C230.892 68.5872 230.557 69.1136 230.238 69.7197C229.951 70.2939 229.695 70.8841 229.472 71.4902C229.281 72.0645 229.185 72.4951 229.185 72.7822C229.185 73.484 229.185 74.2018 229.185 74.9355C229.217 75.6374 229.233 76.3551 229.233 77.0889V79.8643C229.201 80.4385 229.153 81.0286 229.089 81.6348C229.026 82.2409 228.93 82.8311 228.802 83.4053C228.707 83.9795 228.563 84.5378 228.372 85.0801C228.18 85.5905 227.925 86.0531 227.606 86.4678C227.319 86.8506 226.968 87.1696 226.553 87.4248C226.139 87.68 225.644 87.8076 225.07 87.8076C224.432 87.8076 223.905 87.6003 223.491 87.1855C223.076 86.7708 222.741 86.2445 222.486 85.6064C222.231 84.9365 222.039 84.2028 221.912 83.4053C221.816 82.5758 221.736 81.7783 221.672 81.0127C221.64 80.2152 221.625 79.4974 221.625 78.8594C221.656 78.1895 221.672 77.6631 221.672 77.2803V75.0312C221.672 73.819 221.64 72.6227 221.577 71.4424C221.545 70.262 221.529 69.0817 221.529 67.9014C221.529 67.2633 221.529 66.4499 221.529 65.4609C221.561 64.472 221.688 63.515 221.912 62.5898C222.135 61.6328 222.502 60.8193 223.012 60.1494C223.523 59.4795 224.272 59.1445 225.261 59.1445C225.708 59.1445 226.107 59.2881 226.458 59.5752C226.808 59.8623 227.111 60.2132 227.367 60.6279C227.654 61.0426 227.877 61.4893 228.037 61.9678C228.228 62.4463 228.372 62.861 228.467 63.2119C228.786 62.7653 229.153 62.3346 229.568 61.9199C230.014 61.5052 230.509 61.1383 231.051 60.8193C231.594 60.5003 232.2 60.2451 232.87 60.0537C233.54 59.8623 234.305 59.7666 235.167 59.7666C236.793 59.7666 238.054 60.1654 238.947 60.9629C239.872 61.7285 240.542 62.7015 240.957 63.8818C241.403 65.0303 241.674 66.2744 241.77 67.6143C241.866 68.9541 241.914 70.1663 241.914 71.251C241.914 71.7933 241.866 72.6068 241.77 73.6914C241.674 74.7441 241.515 75.9245 241.292 77.2324C241.1 78.5085 240.829 79.8324 240.478 81.2041C240.127 82.5439 239.712 83.7721 239.234 84.8887C238.755 86.0052 238.181 86.9144 237.511 87.6162C236.873 88.318 236.139 88.6689 235.31 88.6689ZM258.183 88.6689C257.641 88.6689 257.21 88.4137 256.891 87.9033C256.572 87.4248 256.333 86.8665 256.173 86.2285C256.014 85.5905 255.902 84.9525 255.838 84.3145C255.806 83.6445 255.791 83.1341 255.791 82.7832C255.791 81.8262 255.838 80.8691 255.934 79.9121C256.062 78.9551 256.189 77.998 256.317 77.041C256.476 76.084 256.604 75.127 256.7 74.1699C256.827 73.2129 256.891 72.2559 256.891 71.2988C256.891 70.916 256.875 70.5013 256.843 70.0547C256.811 69.6081 256.732 69.1934 256.604 68.8105C256.508 68.3958 256.333 68.0609 256.078 67.8057C255.822 67.5505 255.487 67.4229 255.073 67.4229C254.786 67.4229 254.467 67.6621 254.116 68.1406C253.765 68.5872 253.43 69.1136 253.111 69.7197C252.824 70.2939 252.569 70.8841 252.345 71.4902C252.154 72.0645 252.058 72.4951 252.058 72.7822C252.058 73.484 252.058 74.2018 252.058 74.9355C252.09 75.6374 252.106 76.3551 252.106 77.0889V79.8643C252.074 80.4385 252.026 81.0286 251.962 81.6348C251.899 82.2409 251.803 82.8311 251.675 83.4053C251.58 83.9795 251.436 84.5378 251.245 85.0801C251.053 85.5905 250.798 86.0531 250.479 86.4678C250.192 86.8506 249.841 87.1696 249.426 87.4248C249.012 87.68 248.517 87.8076 247.943 87.8076C247.305 87.8076 246.778 87.6003 246.364 87.1855C245.949 86.7708 245.614 86.2445 245.359 85.6064C245.104 84.9365 244.912 84.2028 244.785 83.4053C244.689 82.5758 244.609 81.7783 244.545 81.0127C244.514 80.2152 244.498 79.4974 244.498 78.8594C244.529 78.1895 244.545 77.6631 244.545 77.2803V75.0312C244.545 73.819 244.514 72.6227 244.45 71.4424C244.418 70.262 244.402 69.0817 244.402 67.9014C244.402 67.2633 244.402 66.4499 244.402 65.4609C244.434 64.472 244.561 63.515 244.785 62.5898C245.008 61.6328 245.375 60.8193 245.885 60.1494C246.396 59.4795 247.145 59.1445 248.134 59.1445C248.581 59.1445 248.98 59.2881 249.331 59.5752C249.681 59.8623 249.985 60.2132 250.24 60.6279C250.527 61.0426 250.75 61.4893 250.91 61.9678C251.101 62.4463 251.245 62.861 251.34 63.2119C251.659 62.7653 252.026 62.3346 252.441 61.9199C252.888 61.5052 253.382 61.1383 253.924 60.8193C254.467 60.5003 255.073 60.2451 255.743 60.0537C256.413 59.8623 257.178 59.7666 258.04 59.7666C259.667 59.7666 260.927 60.1654 261.82 60.9629C262.745 61.7285 263.415 62.7015 263.83 63.8818C264.276 65.0303 264.547 66.2744 264.643 67.6143C264.739 68.9541 264.787 70.1663 264.787 71.251C264.787 71.7933 264.739 72.6068 264.643 73.6914C264.547 74.7441 264.388 75.9245 264.165 77.2324C263.973 78.5085 263.702 79.8324 263.351 81.2041C263 82.5439 262.585 83.7721 262.107 84.8887C261.628 86.0052 261.054 86.9144 260.384 87.6162C259.746 88.318 259.013 88.6689 258.183 88.6689ZM287.516 78.8115C287.516 79.8962 287.165 80.9648 286.463 82.0176C285.793 83.0384 284.932 83.9635 283.879 84.793C282.859 85.5905 281.758 86.2445 280.578 86.7549C279.397 87.2334 278.313 87.4727 277.324 87.4727C275.633 87.4727 274.118 87.0579 272.778 86.2285C271.47 85.3672 270.369 84.2826 269.476 82.9746C268.583 81.6667 267.897 80.2311 267.418 78.668C266.972 77.0729 266.749 75.5257 266.749 74.0264C266.749 72.4313 266.972 70.7246 267.418 68.9062C267.865 67.0879 268.535 65.4131 269.428 63.8818C270.353 62.3506 271.502 61.0745 272.874 60.0537C274.277 59.0329 275.936 58.5225 277.85 58.5225C278.935 58.5225 279.972 58.7139 280.96 59.0967C281.949 59.4476 282.811 59.958 283.544 60.6279C284.278 61.2979 284.868 62.0954 285.315 63.0205C285.762 63.9456 285.985 64.9824 285.985 66.1309C285.985 67.6302 285.666 69.0339 285.028 70.3418C284.39 71.6497 283.544 72.7822 282.492 73.7393C281.439 74.6963 280.227 75.4779 278.855 76.084C277.483 76.6582 276.08 76.9772 274.644 77.041C274.772 77.9661 275.139 78.6361 275.745 79.0508C276.383 79.4655 277.132 79.6729 277.994 79.6729C278.632 79.6729 279.254 79.5133 279.86 79.1943C280.466 78.8753 281.056 78.5244 281.63 78.1416C282.205 77.7269 282.763 77.36 283.305 77.041C283.879 76.722 284.454 76.5625 285.028 76.5625C285.666 76.5625 286.24 76.7699 286.75 77.1846C287.261 77.5993 287.516 78.1416 287.516 78.8115ZM279.764 67.0879C279.764 66.6732 279.653 66.2425 279.429 65.7959C279.206 65.3493 278.855 65.126 278.376 65.126C277.675 65.126 277.084 65.3174 276.606 65.7002C276.127 66.0511 275.729 66.5137 275.41 67.0879C275.091 67.6302 274.835 68.2204 274.644 68.8584C274.485 69.4964 274.389 70.0866 274.357 70.6289C274.804 70.5332 275.33 70.4056 275.936 70.2461C276.574 70.0866 277.164 69.8792 277.707 69.624C278.281 69.3369 278.759 68.986 279.142 68.5713C279.557 68.1566 279.764 67.6621 279.764 67.0879ZM307.183 68.9541C307.183 69.1136 307.167 69.2891 307.135 69.4805C307.103 69.64 307.056 69.7995 306.992 69.959C306.705 70.6927 306.258 71.3148 305.652 71.8252C305.046 72.3037 304.328 72.543 303.499 72.543C302.254 72.543 301.409 71.9209 300.962 70.6768C300.899 70.5173 300.867 70.3418 300.867 70.1504C300.867 69.9271 300.851 69.7038 300.819 69.4805V68.0928C300.755 67.6462 300.643 67.2952 300.484 67.04C300.324 66.7848 300.053 66.6572 299.67 66.6572C299.128 66.6572 298.602 67.0081 298.091 67.71C297.613 68.3799 297.182 69.1934 296.799 70.1504C296.448 71.0755 296.161 72.0326 295.938 73.0215C295.715 74.0104 295.603 74.8079 295.603 75.4141C295.603 75.8926 295.635 76.4827 295.699 77.1846C295.763 77.8545 295.89 78.5085 296.082 79.1465C296.273 79.7845 296.528 80.3428 296.847 80.8213C297.198 81.2679 297.645 81.4912 298.187 81.4912C298.729 81.4912 299.224 81.3317 299.67 81.0127C300.149 80.6618 300.611 80.263 301.058 79.8164C301.473 79.4336 301.919 79.0348 302.398 78.6201C302.908 78.2054 303.483 77.998 304.121 77.998C304.918 77.998 305.54 78.2852 305.987 78.8594C306.465 79.4336 306.705 80.0876 306.705 80.8213C306.705 81.9059 306.417 82.9268 305.843 83.8838C305.269 84.8089 304.551 85.6224 303.69 86.3242C302.829 86.9941 301.872 87.5205 300.819 87.9033C299.766 88.318 298.761 88.5254 297.804 88.5254C296.082 88.5254 294.614 88.0947 293.402 87.2334C292.222 86.3721 291.264 85.2874 290.531 83.9795C289.797 82.6396 289.271 81.1882 288.952 79.625C288.633 78.0618 288.473 76.5785 288.473 75.1748C288.473 73.5479 288.696 71.7933 289.143 69.9111C289.59 67.9971 290.276 66.2266 291.201 64.5996C292.126 62.9727 293.306 61.6169 294.742 60.5322C296.209 59.4476 297.948 58.9053 299.958 58.9053C301.202 58.9053 302.27 59.1764 303.164 59.7188C304.089 60.2611 304.838 60.9788 305.413 61.8721C306.019 62.7334 306.465 63.7064 306.752 64.791C307.071 65.8757 307.231 66.9443 307.231 67.9971C307.231 68.1566 307.231 68.3161 307.231 68.4756C307.231 68.6351 307.215 68.7946 307.183 68.9541ZM329.913 78.8115C329.913 79.8962 329.562 80.9648 328.86 82.0176C328.19 83.0384 327.329 83.9635 326.276 84.793C325.255 85.5905 324.154 86.2445 322.974 86.7549C321.794 87.2334 320.709 87.4727 319.72 87.4727C318.029 87.4727 316.514 87.0579 315.174 86.2285C313.866 85.3672 312.766 84.2826 311.873 82.9746C310.979 81.6667 310.293 80.2311 309.815 78.668C309.368 77.0729 309.145 75.5257 309.145 74.0264C309.145 72.4313 309.368 70.7246 309.815 68.9062C310.262 67.0879 310.931 65.4131 311.825 63.8818C312.75 62.3506 313.898 61.0745 315.27 60.0537C316.674 59.0329 318.333 58.5225 320.247 58.5225C321.331 58.5225 322.368 58.7139 323.357 59.0967C324.346 59.4476 325.207 59.958 325.941 60.6279C326.675 61.2979 327.265 62.0954 327.711 63.0205C328.158 63.9456 328.381 64.9824 328.381 66.1309C328.381 67.6302 328.062 69.0339 327.424 70.3418C326.786 71.6497 325.941 72.7822 324.888 73.7393C323.835 74.6963 322.623 75.4779 321.251 76.084C319.88 76.6582 318.476 76.9772 317.041 77.041C317.168 77.9661 317.535 78.6361 318.141 79.0508C318.779 79.4655 319.529 79.6729 320.39 79.6729C321.028 79.6729 321.65 79.5133 322.256 79.1943C322.862 78.8753 323.453 78.5244 324.027 78.1416C324.601 77.7269 325.159 77.36 325.702 77.041C326.276 76.722 326.85 76.5625 327.424 76.5625C328.062 76.5625 328.637 76.7699 329.147 77.1846C329.657 77.5993 329.913 78.1416 329.913 78.8115ZM322.161 67.0879C322.161 66.6732 322.049 66.2425 321.826 65.7959C321.602 65.3493 321.251 65.126 320.773 65.126C320.071 65.126 319.481 65.3174 319.002 65.7002C318.524 66.0511 318.125 66.5137 317.806 67.0879C317.487 67.6302 317.232 68.2204 317.041 68.8584C316.881 69.4964 316.785 70.0866 316.753 70.6289C317.2 70.5332 317.726 70.4056 318.333 70.2461C318.971 70.0866 319.561 69.8792 320.103 69.624C320.677 69.3369 321.156 68.986 321.539 68.5713C321.953 68.1566 322.161 67.6621 322.161 67.0879ZM345.847 61.0107C345.847 61.9359 345.528 62.6217 344.89 63.0684C344.284 63.515 343.598 63.9456 342.833 64.3604C342.067 64.7432 341.365 65.2057 340.727 65.748C340.121 66.2904 339.818 67.1038 339.818 68.1885C339.818 68.7627 339.945 69.2572 340.201 69.6719C340.488 70.0866 340.823 70.4694 341.206 70.8203C341.62 71.1393 342.067 71.4743 342.545 71.8252C343.024 72.1761 343.455 72.5749 343.837 73.0215C344.252 73.4681 344.587 74.0104 344.842 74.6484C345.129 75.2865 345.273 76.068 345.273 76.9932C345.273 78.333 344.922 79.6569 344.22 80.9648C343.55 82.2409 342.673 83.3893 341.588 84.4102C340.536 85.3991 339.339 86.1966 338 86.8027C336.66 87.4089 335.336 87.7119 334.028 87.7119C333.486 87.7119 332.943 87.6641 332.401 87.5684C331.859 87.5046 331.364 87.361 330.917 87.1377C330.503 86.9144 330.152 86.6113 329.865 86.2285C329.578 85.8138 329.434 85.2874 329.434 84.6494C329.434 83.7562 329.61 83.0703 329.96 82.5918C330.311 82.0814 330.758 81.6826 331.3 81.3955C331.843 81.1084 332.417 80.8851 333.023 80.7256C333.661 80.5661 334.251 80.3747 334.793 80.1514C335.336 79.8962 335.782 79.5771 336.133 79.1943C336.484 78.8115 336.66 78.2692 336.66 77.5674C336.66 76.8975 336.389 76.2116 335.846 75.5098C335.336 74.776 334.762 74.0104 334.124 73.2129C333.486 72.3835 332.895 71.5062 332.353 70.5811C331.843 69.6559 331.587 68.6351 331.587 67.5186C331.587 66.1468 331.859 64.8867 332.401 63.7383C332.975 62.5579 333.725 61.5371 334.65 60.6758C335.607 59.8145 336.692 59.1445 337.904 58.666C339.116 58.1556 340.392 57.9004 341.732 57.9004C342.242 57.9004 342.737 57.9482 343.215 58.0439C343.726 58.1396 344.172 58.3151 344.555 58.5703C344.938 58.7936 345.241 59.1126 345.464 59.5273C345.72 59.9102 345.847 60.4046 345.847 61.0107ZM368.098 80.582C368.098 81.1562 368.066 81.9059 368.002 82.8311C367.971 83.7562 367.843 84.6654 367.62 85.5586C367.396 86.4199 367.045 87.1696 366.567 87.8076C366.088 88.4456 365.418 88.7646 364.557 88.7646C363.377 88.7646 362.468 88.3818 361.83 87.6162C361.192 86.8506 360.889 85.8936 360.92 84.7451C359.9 85.6383 358.735 86.3402 357.427 86.8506C356.151 87.361 354.843 87.6162 353.503 87.6162C352.578 87.6162 351.701 87.3929 350.872 86.9463C350.042 86.4997 349.308 85.9255 348.67 85.2236C348.032 84.5218 347.522 83.7402 347.139 82.8789C346.756 81.9857 346.565 81.1084 346.565 80.2471C346.565 78.7158 347.028 77.376 347.953 76.2275C348.91 75.0791 350.074 74.1061 351.446 73.3086C352.818 72.4792 354.269 71.8252 355.8 71.3467C357.363 70.8682 358.751 70.5492 359.963 70.3896C359.963 70.2301 359.963 70.0866 359.963 69.959C359.995 69.8314 360.011 69.6878 360.011 69.5283C360.011 68.5394 359.74 67.7419 359.198 67.1357C358.655 66.5296 357.89 66.2266 356.901 66.2266C356.103 66.2266 355.417 66.3701 354.843 66.6572C354.269 66.9124 353.727 67.2155 353.216 67.5664C352.706 67.8854 352.195 68.1885 351.685 68.4756C351.175 68.7308 350.6 68.8584 349.962 68.8584C349.261 68.8584 348.654 68.6351 348.144 68.1885C347.666 67.7419 347.426 67.1676 347.426 66.4658C347.426 65.4131 347.729 64.4561 348.335 63.5947C348.973 62.7334 349.755 62.0156 350.68 61.4414C351.637 60.8353 352.658 60.3727 353.743 60.0537C354.859 59.7028 355.88 59.5273 356.805 59.5273C357.667 59.5273 358.528 59.639 359.389 59.8623C360.25 60.0537 361.064 60.3727 361.83 60.8193C362.595 61.234 363.281 61.7604 363.887 62.3984C364.525 63.0046 365.036 63.7223 365.418 64.5518C365.993 65.7321 366.455 66.9922 366.806 68.332C367.157 69.64 367.428 70.9958 367.62 72.3994C367.811 73.7712 367.939 75.1589 368.002 76.5625C368.066 77.9342 368.098 79.2741 368.098 80.582ZM360.442 79.0508L360.298 75.7969C360.235 75.7969 360.171 75.7969 360.107 75.7969C360.043 75.765 359.979 75.749 359.916 75.749C359.501 75.749 358.974 75.8607 358.336 76.084C357.73 76.2754 357.14 76.5625 356.566 76.9453C355.992 77.2962 355.497 77.695 355.083 78.1416C354.7 78.5882 354.508 79.0508 354.508 79.5293C354.508 79.9759 354.668 80.279 354.987 80.4385C355.306 80.598 355.673 80.6777 356.087 80.6777C356.789 80.6777 357.539 80.5023 358.336 80.1514C359.134 79.7686 359.836 79.4017 360.442 79.0508ZM387.574 69.4326C387.127 69.4645 386.744 69.4326 386.425 69.3369C386.106 69.2093 385.787 69.0817 385.468 68.9541C385.181 68.8265 384.894 68.7148 384.607 68.6191C384.32 68.4915 384.001 68.4437 383.65 68.4756C383.012 68.5075 382.438 68.6829 381.927 69.002C381.449 69.321 381.002 69.7197 380.587 70.1982C380.205 70.6768 379.87 71.2191 379.583 71.8252C379.295 72.3994 379.072 72.9736 378.913 73.5479C378.817 73.9307 378.737 74.5208 378.673 75.3184C378.641 76.084 378.625 76.9134 378.625 77.8066C378.594 78.7318 378.578 79.609 378.578 80.4385C378.578 81.2679 378.546 81.9219 378.482 82.4004C378.45 82.9108 378.37 83.5169 378.243 84.2188C378.115 84.8887 377.908 85.5267 377.621 86.1328C377.365 86.7389 377.014 87.2493 376.568 87.6641C376.121 88.0788 375.547 88.2861 374.845 88.2861C374.303 88.2861 373.824 88.1266 373.41 87.8076C373.027 87.4886 372.692 87.0739 372.405 86.5635C372.15 86.0212 371.926 85.3991 371.735 84.6973C371.575 83.9954 371.448 83.2777 371.352 82.5439C371.256 81.7783 371.177 81.0127 371.113 80.2471C371.081 79.4814 371.049 78.7637 371.017 78.0938C371.017 77.3919 371.017 76.7539 371.017 76.1797C371.049 75.6055 371.065 75.1429 371.065 74.792C371.033 73.6755 370.969 72.5589 370.874 71.4424C370.81 70.2939 370.778 69.1615 370.778 68.0449C370.778 67.3431 370.81 66.5615 370.874 65.7002C370.937 64.8389 371.113 64.0413 371.4 63.3076C371.687 62.542 372.102 61.904 372.644 61.3936C373.218 60.8831 374 60.6279 374.989 60.6279C375.531 60.6279 375.994 60.8034 376.376 61.1543C376.759 61.5052 377.062 61.9359 377.286 62.4463C377.541 62.9567 377.732 63.499 377.86 64.0732C377.987 64.6475 378.067 65.1738 378.099 65.6523C378.865 64.4082 379.726 63.4033 380.683 62.6377C381.64 61.8402 382.884 61.4095 384.416 61.3457C385.181 61.3138 385.931 61.3936 386.665 61.585C387.43 61.7445 388.116 62.0316 388.722 62.4463C389.36 62.8291 389.871 63.3395 390.253 63.9775C390.668 64.6156 390.891 65.3652 390.923 66.2266C390.987 67.2474 390.684 68.029 390.014 68.5713C389.344 69.1136 388.531 69.4007 387.574 69.4326ZM399.537 53.9287C399.537 54.3753 399.409 54.7741 399.154 55.125C398.931 55.4759 398.627 55.7949 398.245 56.082C397.862 56.3372 397.447 56.5446 397 56.7041C396.554 56.8317 396.139 56.8955 395.756 56.8955C395.118 56.8955 394.56 56.736 394.082 56.417C393.603 56.098 393.364 55.6035 393.364 54.9336C393.364 54.4551 393.475 54.0404 393.699 53.6895C393.954 53.3066 394.257 53.0036 394.608 52.7803C394.959 52.5251 395.358 52.3337 395.804 52.2061C396.251 52.0785 396.681 52.0146 397.096 52.0146C397.702 52.0146 398.261 52.1582 398.771 52.4453C399.281 52.7324 399.537 53.2269 399.537 53.9287ZM399.919 70.1982C399.919 70.6449 399.919 71.1234 399.919 71.6338C399.919 72.1123 399.903 72.5749 399.872 73.0215C399.84 73.5638 399.824 74.2975 399.824 75.2227C399.824 76.1159 399.792 77.0889 399.728 78.1416C399.664 79.1943 399.553 80.263 399.393 81.3477C399.265 82.4323 399.042 83.4212 398.723 84.3145C398.404 85.2077 397.973 85.9414 397.431 86.5156C396.921 87.0579 396.267 87.3451 395.469 87.377C394.863 87.4089 394.353 87.1696 393.938 86.6592C393.523 86.1488 393.172 85.4948 392.885 84.6973C392.63 83.8678 392.439 82.9587 392.311 81.9697C392.183 80.9489 392.088 79.9759 392.024 79.0508C391.96 78.0938 391.928 77.2165 391.928 76.4189C391.928 75.6214 391.928 75.0312 391.928 74.6484C391.928 74.138 391.928 73.4202 391.928 72.4951C391.928 71.5381 391.96 70.5173 392.024 69.4326C392.088 68.348 392.199 67.2474 392.359 66.1309C392.55 65.0143 392.806 63.9935 393.125 63.0684C393.475 62.1432 393.922 61.3936 394.464 60.8193C395.007 60.2451 395.693 59.958 396.522 59.958C397.383 59.958 398.037 60.3887 398.484 61.25C398.931 62.1113 399.265 63.1162 399.489 64.2646C399.712 65.4131 399.84 66.5615 399.872 67.71C399.903 68.8265 399.919 69.6559 399.919 70.1982ZM412.409 88.7168C410.782 88.7168 409.362 88.2861 408.15 87.4248C406.938 86.5635 405.917 85.4629 405.087 84.123C404.258 82.7832 403.636 81.2998 403.221 79.6729C402.806 78.014 402.599 76.387 402.599 74.792C402.599 73.1012 402.806 71.3626 403.221 69.5762C403.636 67.7578 404.274 66.1149 405.135 64.6475C405.997 63.1481 407.097 61.9359 408.437 61.0107C409.777 60.0537 411.372 59.5752 413.222 59.5752C415.009 59.5752 416.524 60.0697 417.768 61.0586C419.044 62.0156 420.065 63.2279 420.831 64.6953C421.596 66.1309 422.139 67.71 422.458 69.4326C422.777 71.1553 422.888 72.7822 422.792 74.3135C422.697 76.0042 422.426 77.7109 421.979 79.4336C421.564 81.1562 420.942 82.7035 420.113 84.0752C419.283 85.4469 418.231 86.5635 416.955 87.4248C415.679 88.2861 414.163 88.7168 412.409 88.7168ZM412.887 67.0879C412.409 67.0879 411.978 67.3431 411.595 67.8535C411.244 68.3639 410.941 68.986 410.686 69.7197C410.463 70.4535 410.287 71.235 410.16 72.0645C410.032 72.862 409.968 73.5638 409.968 74.1699C409.968 74.9355 410.032 75.765 410.16 76.6582C410.319 77.5514 410.527 78.3809 410.782 79.1465C411.037 79.8802 411.34 80.5023 411.691 81.0127C412.074 81.4912 412.504 81.7305 412.983 81.7305C413.493 81.7305 413.924 81.4912 414.275 81.0127C414.658 80.5342 414.961 79.9281 415.184 79.1943C415.407 78.4606 415.567 77.6631 415.663 76.8018C415.758 75.9085 415.806 75.0791 415.806 74.3135C415.806 73.6117 415.742 72.846 415.615 72.0166C415.487 71.1553 415.296 70.3577 415.041 69.624C414.817 68.8903 414.514 68.2842 414.131 67.8057C413.78 67.3271 413.366 67.0879 412.887 67.0879Z" fill="#F8218A"/>
</svg>
