<svg width="198" height="38" viewBox="0 0 198 38" fill="none" xmlns="http://www.w3.org/2000/svg">
<path d="M0 19C0 8.50659 8.50659 0 19 0V0C29.4934 0 38 8.50659 38 19V19C38 29.4934 29.4934 38 19 38V38C8.50659 38 0 29.4934 0 19V19Z" fill="#F8218A"/>
<path d="M0 19C0 8.50659 8.50659 0 19 0C29.4934 0 38 8.50659 38 19C38 29.4934 29.4934 38 19 38C8.50659 38 0 29.4934 0 19Z" fill="#F8218A"/>
<rect width="19" height="28" transform="translate(9.5 5)" fill="#F8218A"/>
<path d="M25.618 7C19.3029 10.4696 20.7075 17.4206 20.7075 17.4206H15.797C16.9893 10.6098 10.8865 7.68925 10.8865 7.68925C10.3908 10.5748 10.0248 13.9276 10.0012 17.6659C9.96582 23.3084 10.6977 28.1682 11.583 32L25.7125 31.7196C28.6635 19.535 25.618 7 25.618 7ZM15.2422 19.1846C16.0213 19.1846 16.6469 20.271 16.6469 21.6145C16.6469 22.9579 16.0213 24.0444 15.2422 24.0444C14.4632 24.0444 13.8376 22.9579 13.8376 21.6145C13.8376 20.271 14.4632 19.1846 15.2422 19.1846ZM23.0684 26.5561C23.0566 26.5794 23.0566 26.6145 23.0448 26.6495C22.7615 27.6425 22.006 28.5537 20.861 28.5187C20.1409 28.4953 19.4563 28.028 18.9133 27.3621C18.7953 27.3855 18.6772 27.3855 18.5592 27.3505C17.969 28.0397 17.2253 28.507 16.4463 28.5304C15.7262 28.5537 14.2153 27.9229 14.2271 26.6495V26.6028C14.2271 26.3107 14.6048 26.1121 14.7583 26.3107C15.3249 27.0234 15.6554 27.3972 16.4463 27.3388C16.9066 27.3037 17.4142 27.035 17.851 26.6495L16.7178 24.6986C16.3872 24.1379 16.8004 23.4369 17.4496 23.4369H20.0819C20.7312 23.4369 21.1443 24.1379 20.8138 24.6986L19.5625 26.8364C19.657 26.9182 19.7278 26.9883 19.7514 27C20.8138 27.8528 21.581 27.2921 22.5018 26.3224C22.5844 26.229 22.6552 26.1005 22.7969 26.1472C22.8559 26.1706 22.9149 26.2056 22.9621 26.2523C23.0093 26.2874 23.0566 26.3224 23.0684 26.3808C23.1038 26.4393 23.0802 26.4977 23.0684 26.5561ZM22.2539 24.0444C21.4748 24.0444 20.8492 22.9579 20.8492 21.6145C20.8492 20.271 21.4748 19.1846 22.2539 19.1846C23.0329 19.1846 23.6586 20.271 23.6586 21.6145C23.6586 22.9579 23.0329 24.0444 22.2539 24.0444Z" fill="#F8F9FF"/>
<path d="M72.4357 13.7289C71.3535 13.7987 70.2015 13.8336 69.0147 13.9034C67.8278 13.9732 66.6758 14.0431 65.5937 14.1827C65.5937 13.5893 65.4889 12.9609 65.3493 12.2977C65.2097 11.6344 64.9653 11.0759 64.6861 10.5173C64.4068 9.99373 64.0228 9.53992 63.569 9.19084C63.1152 8.84176 62.5916 8.66722 61.9632 8.66722C60.9858 8.66722 60.148 8.94648 59.4149 9.50501C58.6819 10.0635 58.0535 10.7966 57.5997 11.7042C57.111 12.6118 56.7619 13.6591 56.5176 14.811C56.2732 15.963 56.1685 17.1499 56.1685 18.3368C56.1685 19.5585 56.2732 20.7454 56.5176 21.8974C56.7619 23.0493 57.111 24.0966 57.5997 25.0042C58.0884 25.9118 58.6819 26.6449 59.4149 27.2034C60.148 27.7619 60.9858 28.0412 61.9283 28.0412C64.8955 28.0412 66.3616 26.7496 66.3616 24.1664C66.3616 24.0268 66.3616 23.922 66.3616 23.7824C66.3616 23.6428 66.3616 23.5032 66.3267 23.3635C65.3493 23.4333 64.3719 23.4682 63.3596 23.4682C62.3472 23.4682 61.4047 23.4682 60.3924 23.5031C60.3575 22.5257 60.3225 21.5483 60.3225 20.5709C60.3225 20.0473 60.3225 19.5236 60.3225 19C60.3225 18.4764 60.3225 17.9528 60.3225 17.4291C60.4971 17.4291 60.8462 17.4291 61.3349 17.4291C61.8236 17.4291 62.3821 17.3942 63.0454 17.3942C63.7086 17.3942 64.4417 17.3593 65.2097 17.3593C65.9777 17.3593 66.7805 17.3593 67.5485 17.3244C68.3165 17.3244 69.0845 17.3244 69.8175 17.2895C70.5506 17.2895 71.179 17.2895 71.7375 17.2895C72.0866 17.2895 72.4007 17.2895 72.68 17.2895C72.9593 17.2895 73.1687 17.2895 73.2734 17.3244V19.1396C73.2734 20.3265 73.2385 21.5483 73.1338 22.8748C73.064 24.2013 72.8545 25.4929 72.6102 26.7845C72.3309 28.0761 71.9469 29.2979 71.3884 30.4848C70.8648 31.6716 70.1666 32.684 69.259 33.5916C68.3863 34.4992 67.2693 35.1974 65.9777 35.721C64.6861 36.2446 63.1152 36.5239 61.2651 36.5239C59.8687 36.5239 58.5422 36.3144 57.3554 35.8955C56.1685 35.4766 55.0514 34.8483 54.074 34.0803C53.0966 33.3123 52.2239 32.3698 51.4559 31.2877C50.7228 30.2404 50.0945 29.0884 49.5709 27.7968C49.0472 26.5052 48.6633 25.1438 48.384 23.6777C48.1396 22.2465 48 20.7454 48 19.2095C48 17.7433 48.1396 16.2772 48.384 14.8459C48.6283 13.4147 49.0472 12.0533 49.5709 10.7617C50.0945 9.4701 50.7577 8.24832 51.5606 7.16617C52.3635 6.04911 53.306 5.1066 54.3882 4.2688C55.5052 3.46592 56.727 2.83757 58.1233 2.34886C59.4848 1.89505 61.0207 1.6507 62.6614 1.6507C64.3021 1.6507 65.7333 1.96487 66.9551 2.55831C68.1769 3.15174 69.1892 3.98954 69.9921 5.07169C70.795 6.15384 71.4233 7.41053 71.8073 8.87667C72.1913 10.3777 72.4357 11.9835 72.4357 13.7289Z" fill="#00D8CD"/>
<path d="M94.8815 19.2444C94.8815 21.9672 94.6023 24.3759 94.0787 26.4703C93.555 28.5648 92.8569 30.3102 91.9493 31.7065C91.0417 33.1029 89.9944 34.185 88.7726 34.8832C87.5508 35.5813 86.2592 35.9653 84.8629 35.9653C83.6411 35.9653 82.4543 35.6512 81.3372 35.0577C80.2202 34.4643 79.2078 33.5218 78.3002 32.3C77.3926 31.0782 76.6595 29.5422 76.0312 27.6572C75.4377 25.8071 75.0189 23.6079 74.8094 21.1294C74.7047 19.9425 74.6698 18.7906 74.6698 17.7433C74.6698 15.1601 74.9141 12.8911 75.4028 10.9013C75.8916 8.91157 76.5897 7.23598 77.4624 5.90948C78.37 4.51315 79.4173 3.50082 80.6041 2.80266C81.791 2.1045 83.0826 1.75542 84.444 1.75542C85.9102 1.75542 87.2716 2.1045 88.5283 2.80266C89.785 3.50082 90.902 4.54806 91.8445 5.97929C92.7871 7.41052 93.5201 9.22574 94.0787 11.425C94.6023 13.6242 94.8815 16.2423 94.8815 19.2444ZM81.7561 17.848C81.7561 19.3491 81.8608 20.6756 82.0354 21.8974C82.2099 23.0842 82.4543 24.1315 82.7684 24.9693C83.0826 25.8071 83.4317 26.4703 83.8506 26.9241C84.2695 27.3779 84.6884 27.5874 85.1073 27.5874C85.4564 27.5874 85.8054 27.4129 86.1545 27.0987C86.5036 26.7845 86.8178 26.2958 87.0621 25.6325C87.3414 24.9693 87.5508 24.1664 87.6905 23.189C87.8301 22.2115 87.9348 21.0596 87.9348 19.768C87.9348 18.2669 87.8301 16.9404 87.6556 15.7536C87.481 14.5667 87.2367 13.5543 86.9225 12.7166C86.6083 11.8788 86.2592 11.2504 85.8404 10.7966C85.4564 10.3428 85.0026 10.1334 84.5488 10.1334C84.1997 10.1334 83.8506 10.3079 83.5015 10.6221C83.1524 10.9362 82.8383 11.425 82.5939 12.0882C82.3146 12.7515 82.1052 13.5543 81.9656 14.4969C81.8608 15.4394 81.7561 16.5564 81.7561 17.848Z" fill="#00D8CD"/>
<path d="M111.463 1.89505C112.929 1.75542 114.465 1.6856 116.106 1.61578C117.711 1.54597 119.282 1.51106 120.748 1.47615C120.888 4.2688 121.063 7.06144 121.307 9.92391C121.516 12.7864 121.796 15.6488 122.04 18.5113C122.319 21.3738 122.599 24.2362 122.913 27.0987C123.227 29.9611 123.506 32.7538 123.751 35.5464C123.087 35.5464 122.389 35.5813 121.656 35.5813C120.923 35.5813 120.19 35.5813 119.457 35.5813C118.724 35.5813 117.991 35.6162 117.258 35.6162C116.525 35.6162 115.861 35.6512 115.198 35.721C115.652 33.5567 116.071 30.8687 116.106 27.7619C116.141 24.1315 115.687 21.0247 115.128 18.6509C114.535 19.0349 112.301 20.6058 111.777 23.4682C111.603 24.4108 111.672 25.2486 111.777 25.8769C110.66 25.8769 109.543 25.8769 108.426 25.8769C108.531 25.2835 108.635 24.4457 108.426 23.4682C107.867 20.7803 105.529 19.4189 105.075 19.1396C104.761 21.4436 104.516 24.2013 104.586 27.3081C104.656 30.6244 105.075 33.5567 105.563 35.9653C104.516 35.9304 103.678 35.8955 103.12 35.8955C102.177 35.8955 102.003 35.8955 100.641 35.8955C99.9083 35.8955 99.1753 35.8955 98.4771 35.8606C97.7789 35.8606 97.1157 35.8257 96.4873 35.7908C96.5222 34.6388 96.5921 32.8236 96.6968 30.6244C96.8713 26.8892 97.0459 23.957 97.2902 19.1396C97.2902 19.0698 97.3949 17.0452 97.6044 13.2402C97.7091 11.2853 97.8138 9.40028 97.9186 7.55016C98.0233 5.70003 98.128 3.91972 98.1978 2.27904C100.711 2.20922 103.26 2.1394 105.773 2.1045C106.052 3.08192 106.366 4.09426 106.68 5.21131C106.995 6.32837 107.309 7.44543 107.623 8.56249C107.937 9.71446 108.251 10.8315 108.6 11.9486C108.95 13.0656 109.229 14.1478 109.543 15.1601C109.892 12.926 110.241 10.7268 110.625 8.56249C111.009 6.39819 111.253 4.12916 111.463 1.89505Z" fill="#00D8CD"/>
<path d="M125.252 3.15173C125.67 3.15173 126.054 3.15173 126.473 3.15173C126.892 3.15173 127.311 3.15173 127.73 3.15173C128.987 3.15173 130.278 3.18664 131.605 3.22155C132.931 3.25646 134.223 3.32627 135.48 3.39609C135.41 8.70212 135.375 13.9732 135.375 19.2094C135.375 24.4457 135.305 29.7168 135.131 35.0228C134.397 35.0577 133.664 35.0926 132.966 35.0926C132.233 35.0926 131.5 35.1275 130.767 35.1275L127.137 35.0926L125.461 35.1275C125.356 30.6593 125.321 26.226 125.286 21.8276C125.252 17.3942 125.252 12.9609 125.252 8.52758V3.15173Z" fill="#00D8CD"/>
<path d="M138.272 2.94229C139.075 2.87247 139.843 2.83756 140.646 2.80265C141.414 2.76775 142.217 2.76775 143.02 2.76775H144.451C146.65 2.80265 148.57 3.18664 150.141 3.8499C151.747 4.51315 153.038 5.38585 154.086 6.468C155.098 7.51524 155.866 8.73703 156.355 10.0635C156.843 11.4249 157.088 12.7864 157.088 14.1827C157.088 15.6488 156.843 17.0451 156.355 18.4415C155.866 19.8378 155.168 21.0596 154.26 22.1417C153.353 23.2239 152.236 24.0966 150.944 24.7947C149.652 25.458 148.186 25.8071 146.545 25.8071C146.406 25.8071 146.266 25.8071 146.127 25.8071C145.987 25.8071 145.847 25.7722 145.708 25.7722V27.8667C145.708 30.6942 145.743 33.5218 145.778 36.3493C144.521 36.3493 143.264 36.3144 142.007 36.2795C140.751 36.2446 139.529 36.2097 138.272 36.1748C138.307 32.2302 138.342 28.2855 138.342 24.3409C138.342 20.7454 138.342 17.1848 138.307 13.6242C138.307 10.1333 138.272 6.53782 138.272 2.94229ZM145.463 10.3079C145.463 10.8315 145.428 11.39 145.428 12.0184C145.428 12.6467 145.428 13.2751 145.394 13.9383C145.394 14.6016 145.394 15.2997 145.394 15.963C145.394 16.6612 145.394 17.3244 145.394 17.9528L145.428 20.4312C145.498 20.4312 145.568 20.4312 145.673 20.4312C145.743 20.4312 145.812 20.4312 145.917 20.4312C146.545 20.4312 147.104 20.2916 147.593 19.9774C148.081 19.6633 148.5 19.2444 148.815 18.7556C149.164 18.2669 149.408 17.6735 149.582 17.0451C149.757 16.3819 149.827 15.7536 149.827 15.0903C149.827 14.4969 149.757 13.8685 149.582 13.31C149.443 12.7165 149.199 12.1929 148.884 11.774C148.57 11.3202 148.151 10.9711 147.663 10.6919C147.174 10.4126 146.615 10.273 145.917 10.273C145.847 10.273 145.778 10.273 145.708 10.273C145.603 10.273 145.533 10.273 145.463 10.3079Z" fill="#FE579D"/>
<path d="M171.993 23.3984C171.26 23.3635 170.492 23.3286 169.759 23.3286C169.166 23.3286 168.607 23.3286 168.049 23.3635C167.49 23.3635 166.897 23.3984 166.338 23.3984C166.338 23.922 166.338 24.3409 166.338 24.6551C166.338 24.9693 166.338 25.2835 166.338 25.5976C166.338 25.9118 166.338 26.1911 166.373 26.5401C166.373 26.8543 166.408 27.2732 166.408 27.7968C166.827 27.7968 167.351 27.7619 167.909 27.7619C168.503 27.7619 169.131 27.727 169.759 27.727C170.423 27.727 171.086 27.6921 171.749 27.6572C172.412 27.6223 173.076 27.5874 173.669 27.5874C174.263 27.5525 174.821 27.5525 175.31 27.5176C175.798 27.4827 176.182 27.4827 176.462 27.4478C176.532 28.879 176.601 30.3102 176.601 31.7414C176.601 33.1727 176.636 34.6039 176.706 36.0351H176.601C176.182 36.0351 175.484 36.0351 174.577 36.0002C173.634 36.0002 172.587 35.9653 171.4 35.9304C170.213 35.8955 168.956 35.8955 167.665 35.8606C166.338 35.8257 165.117 35.7908 163.93 35.7908C162.743 35.7559 161.731 35.7559 160.788 35.721C159.88 35.721 159.217 35.6861 158.868 35.6861H158.694C158.694 34.7435 158.659 33.7661 158.659 32.7538C158.659 31.7414 158.659 30.6942 158.659 29.647C158.659 27.3779 158.659 25.0391 158.659 22.6304C158.659 20.2218 158.659 17.8131 158.659 15.4045C158.659 13.4496 158.659 11.4948 158.659 9.60973C158.659 7.72469 158.624 5.87456 158.589 4.09425C161.102 4.05934 163.616 4.02444 166.129 4.02444C168.677 3.95462 171.191 3.95462 173.704 3.95462H175.938C175.973 5.1764 176.008 6.43309 176.043 7.65488C176.078 8.87666 176.078 10.0984 176.078 11.3551V11.5646C174.402 11.5646 172.692 11.5297 170.981 11.4599C169.271 11.39 167.56 11.3551 165.885 11.2504C165.885 11.774 165.885 12.2627 165.885 12.7165C165.885 13.1704 165.885 13.5892 165.885 14.0431C165.885 14.462 165.885 14.8459 165.885 15.2648C165.885 15.6837 165.919 16.1375 165.919 16.6263H166.967C167.56 16.6263 168.154 16.6263 168.782 16.6263C169.41 16.6263 170.039 16.6263 170.632 16.6263L171.959 16.6612V23.3984H171.993Z" fill="#FE579D"/>
<path d="M178.242 3.431C180.022 3.39609 181.838 3.36119 183.618 3.36119C185.398 3.32628 187.213 3.32628 188.994 3.32628C190.495 3.32628 191.996 3.32628 193.497 3.36119C194.963 3.36119 196.464 3.39609 198 3.431V3.50082C198 4.58297 197.965 5.66512 197.93 6.74727C197.895 7.82942 197.86 8.91157 197.86 9.99372C197.86 10.3079 197.86 10.6221 197.86 10.9013C197.86 11.2155 197.895 11.4948 197.895 11.8089C197.546 11.8089 197.127 11.774 196.639 11.774C196.185 11.774 195.696 11.774 195.172 11.774H191.717C191.751 15.7885 191.821 19.7331 191.891 23.6428C191.961 27.5525 192.031 31.4971 192.031 35.5115V36.1748C191.542 36.1748 191.018 36.2097 190.53 36.2097C190.006 36.2097 189.517 36.2097 189.029 36.2097H183.723C183.758 34.3247 183.792 32.4047 183.827 30.4499C183.862 28.495 183.932 26.5052 183.967 24.5155C184.002 22.5257 184.072 20.536 184.107 18.5462C184.141 16.5564 184.176 14.6365 184.176 12.7515L184.141 11.9137H183.583C182.745 11.9137 181.872 11.9137 180.965 11.9486C180.057 11.9835 179.219 11.9835 178.382 11.9835L178.417 10.4824C178.417 9.29556 178.417 8.14359 178.382 6.95672C178.312 5.76984 178.277 4.58297 178.242 3.431Z" fill="#FE579D"/>
<path d="M112.58 31.0433C113.12 31.0433 113.557 30.2931 113.557 29.3677C113.557 28.4423 113.12 27.6921 112.58 27.6921C112.04 27.6921 111.603 28.4423 111.603 29.3677C111.603 30.2931 112.04 31.0433 112.58 31.0433Z" fill="#00D8CD"/>
<path d="M107.763 31.0433C108.302 31.0433 108.74 30.2931 108.74 29.3677C108.74 28.4423 108.302 27.6921 107.763 27.6921C107.223 27.6921 106.785 28.4423 106.785 29.3677C106.785 30.2931 107.223 31.0433 107.763 31.0433Z" fill="#00D8CD"/>
<path d="M112.929 33.6265C112.859 33.7312 112.51 34.2548 111.847 34.3247C111.463 34.3596 111.044 34.2199 110.73 33.9407C110.765 33.9058 110.8 33.8709 110.835 33.8359L111.742 32.2651C111.952 31.8811 111.672 31.3924 111.253 31.3924H109.438C108.984 31.3924 108.705 31.8811 108.949 32.2651L109.857 33.8359C109.892 33.9058 109.927 33.9407 109.997 33.9756C109.822 34.1152 109.578 34.2898 109.229 34.3247C108.705 34.3945 108.147 34.1152 107.867 33.6265L107.588 33.801C107.937 34.3247 108.496 34.6388 109.124 34.6388C109.194 34.6388 109.229 34.6388 109.299 34.6388C109.822 34.569 110.171 34.3247 110.416 34.0803C110.451 34.0803 110.485 34.0803 110.52 34.0803C110.869 34.4294 111.323 34.6388 111.812 34.6388C111.882 34.6388 111.917 34.6388 111.986 34.6388C112.789 34.569 113.243 33.9058 113.313 33.801L112.929 33.6265Z" fill="#00D8CD"/>
</svg>
