<svg width="372" height="394" viewBox="0 0 372 394" fill="none" xmlns="http://www.w3.org/2000/svg">
<g filter="url(#filter0_d_152_73)">
<path d="M51.5133 254.832C29.3542 254.832 11.5038 272.682 11.5038 294.841C11.5038 307.89 17.7822 319.462 27.3845 326.726C22.4602 330.173 17.536 333.497 12.4886 336.944C9.16476 339.159 9.04166 344.084 12.1193 346.546C16.7974 350.239 22.3371 352.701 28.7387 353.317C33.4167 353.809 41.2955 353.932 50.8978 350.855C51.0209 345.561 51.2671 340.144 51.3902 334.851H51.5133C73.5493 334.851 91.5229 316.877 91.5229 294.841C91.5229 272.805 73.5493 254.832 51.5133 254.832Z" fill="#F8F9FF" stroke="#FF8FAB" stroke-width="2" stroke-miterlimit="10"/>
<path d="M229.402 210.39C230.633 210.267 231.864 210.144 233.095 210.144C231.741 210.144 230.51 210.267 229.402 210.39Z" fill="#F8F9FF"/>
<path d="M356.817 238.705C358.171 242.029 359.402 245.476 360.264 249.292C359.279 245.476 358.171 242.029 356.817 238.705Z" fill="#F8F9FF"/>
<path d="M316.315 187.492C317.423 187.616 318.531 187.862 319.639 188.108C318.531 187.862 317.423 187.739 316.315 187.492Z" fill="#F8F9FF"/>
<path d="M251.438 205.712C256.116 203.373 260.548 201.403 264.487 199.803C260.548 201.527 256.116 203.373 251.438 205.712Z" fill="#F8F9FF"/>
<path d="M216.476 215.315C217.461 214.699 218.445 214.083 219.43 213.591C218.445 214.207 217.461 214.699 216.476 215.315Z" fill="#F8F9FF"/>
<path d="M361.864 262.218C361.741 258.648 361.372 255.324 360.756 252.123C312.376 159.547 234.326 240.551 234.326 240.551V228.979C218.076 229.964 203.673 243.383 198.133 249.292L204.165 270.22C330.965 240.674 343.891 311.461 343.891 311.461C347.707 307.029 362.726 288.809 361.864 262.218Z" fill="#F8F9FF" stroke="#FF8FAB" stroke-width="2" stroke-miterlimit="10"/>
<path d="M208.72 221.839C209.459 221.1 210.32 220.239 211.182 219.5C210.197 220.239 209.459 220.977 208.72 221.839Z" fill="#F8F9FF"/>
<path d="M197.394 237.104C197.887 236.366 198.379 235.381 198.995 234.396C198.256 235.504 197.764 236.366 197.394 237.104C196.163 239.197 195.548 240.551 195.548 240.551L196.04 242.275C196.409 240.551 196.779 238.828 197.394 237.104Z" fill="#F8F9FF"/>
<path d="M234.326 228.979V240.551C234.326 240.551 312.499 159.547 360.756 252.123C360.633 251.138 360.387 250.154 360.141 249.292C359.279 245.599 358.048 242.029 356.694 238.705C351.893 227.133 344.506 218.392 338.228 212.36C334.165 208.544 330.595 205.835 328.502 204.358C327.518 203.743 326.902 203.25 326.533 203.127C328.133 203.496 329.734 203.866 331.457 204.358C335.52 205.466 339.213 206.697 342.537 208.051C342.29 207.436 341.921 206.82 341.552 206.205C341.182 205.589 340.813 204.85 340.444 204.235C340.074 203.496 339.582 202.881 339.09 202.142C338.597 201.404 338.105 200.665 337.612 200.049C335.396 197.218 332.565 194.386 328.995 192.171C327.025 190.939 324.932 189.955 322.84 189.216C321.732 188.847 320.747 188.6 319.639 188.231C318.531 187.985 317.423 187.739 316.315 187.616C315.207 187.492 314.099 187.369 312.868 187.369C312.252 187.369 311.76 187.369 311.144 187.369C310.529 187.369 309.913 187.369 309.421 187.369C308.19 187.369 307.082 187.492 305.851 187.616C304.62 187.739 303.389 187.862 302.158 188.108C300.927 188.354 299.696 188.6 298.465 188.847C293.54 189.955 288.37 191.432 283.199 193.155C281.845 193.648 280.614 194.017 279.26 194.51C277.906 195.002 276.675 195.494 275.321 195.864C273.966 196.233 272.612 196.849 271.381 197.341C269.288 198.08 267.072 198.941 264.61 199.926C260.671 201.527 256.239 203.496 251.561 205.835C244.052 209.529 235.803 214.33 227.063 220.362L236.911 210.513C235.557 210.267 234.326 210.267 233.095 210.267C231.864 210.267 230.633 210.39 229.402 210.513C225.832 211.006 222.508 212.114 219.43 213.714C218.445 214.207 217.461 214.822 216.476 215.438C214.506 216.669 212.783 218.146 211.059 219.623C210.197 220.362 209.459 221.101 208.597 221.962C204.411 226.271 201.087 230.949 198.872 234.642C198.256 235.627 197.764 236.489 197.271 237.351C196.779 239.074 196.286 240.798 195.917 242.521L196.902 245.968L197.887 249.415C203.673 243.26 218.076 229.841 234.326 228.979Z" fill="#FF1D8B" stroke="#B80849" stroke-width="2" stroke-miterlimit="10"/>
<path d="M255.5 334.481C250.576 331.034 245.652 327.711 240.605 324.264C250.207 317 256.485 305.428 256.485 292.379C256.485 270.343 238.512 252.37 216.476 252.37C194.44 252.37 176.466 270.22 176.466 292.379C176.466 314.538 194.44 332.389 216.476 332.389H216.599C216.722 337.682 216.968 343.099 217.091 348.392C226.694 351.47 234.572 351.347 239.25 350.855C245.529 350.239 251.192 347.777 255.87 344.084C258.947 341.498 258.824 336.697 255.5 334.481Z" fill="#F8F9FF" stroke="#FF8FAB" stroke-width="2" stroke-miterlimit="10"/>
<path d="M217.707 85.5604L213.89 108.458L213.152 113.136L201.949 181.337L199.118 198.572L173.389 355.163C166.125 358.856 151.845 364.889 132.763 365.012C113.066 365.135 98.1706 358.856 90.9073 355.163C83.6441 302.104 76.2577 249.046 68.9944 195.987C68.1327 189.585 67.2709 183.307 66.4092 176.905C63.4546 155.608 60.5001 134.311 57.6686 113.013C57.1762 109.689 56.8069 106.365 56.3145 103.042C55.5758 97.6249 54.8372 92.2082 54.0986 86.6684C55.0834 74.7271 57.1762 60.4468 61.4849 44.8123C65.5474 29.5471 70.9641 16.4978 76.3808 5.54137C78.5967 1.23265 84.8751 1.60197 86.4755 6.1569C94.4774 28.0698 102.479 50.1058 110.481 72.0187C117.621 69.8028 128.824 67.3407 142.489 68.3256C152.091 68.9411 160.093 71.157 165.879 73.2498C172.773 51.3369 179.667 29.424 186.561 7.38796C188.038 2.58682 194.686 2.09439 196.902 6.77243C201.211 16.0054 205.519 26.5925 209.089 38.7801C214.383 56.6305 216.722 72.6343 217.707 85.5604Z" fill="#F8F9FF" stroke="#FF8FAB" stroke-miterlimit="10"/>
<path d="M71.3334 198.572L47.2046 347.161C44.9887 350.362 36.6175 363.165 41.0493 370.552C46.5891 379.661 68.6251 375.23 80.4433 370.552C89.5532 366.981 96.2009 361.811 100.14 358.241" fill="#F8F9FF"/>
<path d="M71.3334 198.572L47.2046 347.161C44.9887 350.362 36.6175 363.165 41.0493 370.552C46.5891 379.661 68.6251 375.23 80.4433 370.552C89.5532 366.981 96.2009 361.811 100.14 358.241" stroke="#FF8FAB" stroke-width="2" stroke-miterlimit="10"/>
<path d="M68.7482 83.0984C72.3183 80.7594 78.5967 77.1893 87.2141 75.712C93.8619 74.6041 99.4017 75.0965 103.218 75.712C97.3089 59.7082 91.3998 43.8275 85.6138 27.9468C84.6289 25.3615 80.9357 25.6078 80.3202 28.3161C76.5039 46.5358 72.5645 64.7556 68.7482 83.0984Z" stroke="#F8F9FF" stroke-miterlimit="10"/>
<path d="M209.089 85.1912C205.519 82.8521 199.241 79.2821 190.623 77.8048C183.976 76.6968 178.436 77.1893 174.62 77.8048C180.529 61.9241 186.438 45.9203 192.224 30.0396C193.209 27.4543 196.902 27.7005 197.517 30.4089C201.334 48.6286 205.273 66.9714 209.089 85.1912Z" stroke="#F8F9FF" stroke-miterlimit="10"/>
<path d="M217.707 84.945L213.152 112.398C207.12 96.6401 191.608 87.284 176.466 89.1306C158.616 91.4696 144.582 109.074 146.921 129.14C140.396 129.14 133.748 129.14 127.224 129.14C130.548 110.428 118.483 92.2082 100.14 87.8995C81.9206 83.5908 63.0853 94.301 57.5455 112.398C56.3145 103.657 55.0834 94.9166 53.9754 86.0529C54.9603 74.1116 57.0531 59.8313 61.3618 44.1968C65.5474 28.9316 70.9641 15.8823 76.3808 4.92589C78.5967 0.617169 84.8751 0.986488 86.4755 5.54142C94.4774 27.4543 102.479 49.4904 110.481 71.4033C117.621 69.1874 128.824 66.7252 142.489 67.7101C152.091 68.3256 160.093 70.5415 165.879 72.6343C172.896 50.5983 179.79 28.6854 186.684 6.77248C188.161 1.97134 194.809 1.47891 197.025 6.15695C201.334 15.3899 205.642 25.9771 209.212 38.1646C214.383 56.015 216.722 72.0188 217.707 84.945Z" fill="#FF1D8B" stroke="#B80849" stroke-width="2" stroke-miterlimit="10"/>
<path d="M100.017 358.241C99.5247 353.317 99.2785 348.392 99.0323 343.468L98.4168 328.695C98.1706 323.771 98.1706 318.847 98.0475 313.923L97.9244 299.15C97.9244 289.301 98.0475 279.453 98.4168 269.604L99.0323 254.832C99.4016 249.907 99.5247 244.983 100.017 240.059H100.263L100.386 299.027L100.263 357.995H100.017V358.241Z" fill="#B80849"/>
<path d="M167.11 357.995C166.618 353.07 166.371 348.146 166.125 343.222L165.51 328.449C165.263 323.525 165.263 318.601 165.14 313.676L165.017 298.904C165.017 289.055 165.14 279.207 165.51 269.358L166.125 254.585C166.495 249.661 166.618 244.737 167.11 239.813H167.356L167.479 298.781L167.356 357.748H167.11V357.995Z" fill="#B80849"/>
<path d="M196.163 193.279C204.165 244.491 212.167 295.703 220.169 347.038C222.385 350.239 230.756 363.042 226.324 370.428C220.784 379.538 198.748 375.107 186.93 370.428C177.82 366.858 171.173 361.688 167.233 358.118" fill="#F8F9FF"/>
<path d="M196.163 193.279C204.165 244.491 212.167 295.703 220.169 347.038C222.385 350.239 230.756 363.042 226.324 370.428C220.784 379.538 198.748 375.107 186.93 370.428C177.82 366.858 171.173 361.688 167.233 358.118" stroke="#FF8FAB" stroke-width="2" stroke-miterlimit="10"/>
<path d="M67.6403 185.523C68.502 191.924 69.3637 198.203 70.2255 204.604C78.3505 210.513 100.017 224.671 131.286 225.655C166.248 226.763 190.993 210.513 198.748 204.974C199.979 197.957 201.211 191.063 202.442 184.046C192.839 190.57 172.527 202.635 144.089 204.974C105.434 208.174 76.9963 191.555 67.6403 185.523Z" fill="#00D8CD" stroke="#00B7A9" stroke-miterlimit="10"/>
<path d="M68.8713 213.591L83.3978 254.832L67.6402 264.68L75.519 284.377L54.9603 299.027L68.8713 213.591Z" fill="#FF1D8B" stroke="#B80849" stroke-width="2" stroke-miterlimit="10"/>
<path d="M200.103 217.284L185.453 258.525L201.334 268.373L193.455 288.07L213.89 302.72L200.103 217.284Z" fill="#F8218A" stroke="#B80849" stroke-width="2" stroke-miterlimit="10"/>
<path d="M137.072 155.116C137.318 157.455 136.949 160.04 135.841 162.256C134.856 164.472 133.133 166.564 131.163 168.042C129.07 169.519 126.608 170.504 124.023 170.873C121.438 171.243 118.852 170.873 116.39 169.888C113.928 168.903 111.835 167.303 110.112 165.333C108.512 163.364 107.28 160.902 106.911 158.439C106.419 155.977 106.665 153.269 107.404 150.93C108.265 148.591 109.62 146.498 111.466 144.898C108.512 148.714 107.65 153.638 108.758 158.07C109.866 162.379 113.19 166.072 117.252 167.672C121.315 169.396 126.239 168.903 129.932 166.564C131.779 165.333 133.502 163.733 134.733 161.763C136.087 159.794 136.826 157.455 137.072 155.116Z" fill="#2D2727"/>
<path d="M162.801 146.006C164.525 147.606 165.879 149.822 166.618 152.284C167.356 154.746 167.356 157.332 166.741 159.794C166.125 162.256 164.894 164.595 163.171 166.564C161.447 168.534 159.231 169.888 156.769 170.75C154.307 171.612 151.599 171.735 149.137 171.366C146.551 170.873 144.212 169.765 142.243 168.165C140.273 166.564 138.673 164.472 137.811 162.133C136.949 159.794 136.58 157.332 136.949 154.869C137.195 159.671 139.657 164.102 143.474 166.564C147.167 169.15 151.968 169.765 156.154 168.288C160.339 166.934 163.786 163.364 165.14 159.178C165.756 157.085 166.002 154.746 165.633 152.407C165.017 150.314 164.156 148.099 162.801 146.006Z" fill="#2D2727"/>
<path d="M108.758 142.189C113.857 142.189 117.991 132.544 117.991 120.646C117.991 108.748 113.857 99.1022 108.758 99.1022C103.658 99.1022 99.5248 108.748 99.5248 120.646C99.5248 132.544 103.658 142.189 108.758 142.189Z" fill="#382B2B" stroke="#2D2727" stroke-miterlimit="10"/>
<path d="M166.002 142.805C171.101 142.805 175.235 133.16 175.235 121.261C175.235 109.363 171.101 99.7178 166.002 99.7178C160.903 99.7178 156.769 109.363 156.769 121.261C156.769 133.16 160.903 142.805 166.002 142.805Z" fill="#382B2B" stroke="#2D2727" stroke-miterlimit="10"/>
<path d="M143.227 154.5L152.953 141.943C157.015 136.773 153.322 129.263 146.798 129.263H127.347C120.822 129.263 117.129 136.773 121.191 141.943L130.917 154.5C133.995 158.563 140.15 158.563 143.227 154.5Z" fill="#382B2B" stroke="#2D2727" stroke-miterlimit="10"/>
<path d="M148.398 140.343C150.574 140.343 152.337 138.414 152.337 136.034C152.337 133.655 150.574 131.725 148.398 131.725C146.222 131.725 144.459 133.655 144.459 136.034C144.459 138.414 146.222 140.343 148.398 140.343Z" fill="white"/>
<path d="M82.7823 28.3161L66.2861 67.0946H99.2786L82.7823 28.3161Z" fill="#F8F9FF" stroke="#D3C1F4" stroke-miterlimit="10"/>
<path d="M191.116 32.0092L174.62 70.7877H207.612L191.116 32.0092Z" fill="#F8F9FF" stroke="#D3C1F4" stroke-miterlimit="10"/>
</g>
<defs>
<filter id="filter0_d_152_73" x="1.90735e-06" y="2.47955e-05" width="371.8" height="393.749" filterUnits="userSpaceOnUse" color-interpolation-filters="sRGB">
<feFlood flood-opacity="0" result="BackgroundImageFix"/>
<feColorMatrix in="SourceAlpha" type="matrix" values="0 0 0 0 0 0 0 0 0 0 0 0 0 0 0 0 0 0 127 0" result="hardAlpha"/>
<feOffset dy="8"/>
<feGaussianBlur stdDeviation="4.45"/>
<feComposite in2="hardAlpha" operator="out"/>
<feColorMatrix type="matrix" values="0 0 0 0 0 0 0 0 0 0 0 0 0 0 0 0 0 0 0.25 0"/>
<feBlend mode="normal" in2="BackgroundImageFix" result="effect1_dropShadow_152_73"/>
<feBlend mode="normal" in="SourceGraphic" in2="effect1_dropShadow_152_73" result="shape"/>
</filter>
</defs>
</svg>
